<svg width="46" height="40" viewBox="0 0 46 40" fill="none" xmlns="http://www.w3.org/2000/svg">
<path d="M6.325 32.875V37.475C6.325 38.4276 5.55268 39.2 4.6 39.2C3.64732 39.2 2.875 38.4276 2.875 37.475V32.5406C1.18919 31.8582 0 30.2054 0 28.275C0 25.7344 2.05949 23.675 4.6 23.675H41.4C43.9406 23.675 46 25.7344 46 28.275C46 30.2054 44.8109 31.8582 43.125 32.5406V37.475C43.125 38.4276 42.3527 39.2 41.4 39.2C40.4473 39.2 39.675 38.4276 39.675 37.475V32.875H6.325Z" fill="url(#paint0_linear_70_1605)"/>
<path d="M40.8231 21.375C43.047 12.4413 44.0337 7.79894 41.707 4.53487C41.5518 4.31692 41.3868 4.10588 41.2132 3.90228C38.4585 0.674988 33.3053 0.674988 22.9986 0.674988C12.6921 0.674988 7.53878 0.674988 4.78418 3.90228C4.61042 4.10588 4.44562 4.31692 4.29026 4.53487C1.96358 7.79894 2.95042 12.4413 5.17422 21.375L5.63392 23.675H40.3636L40.8231 21.375Z" fill="url(#paint1_linear_70_1605)"/>
<defs>
<linearGradient id="paint0_linear_70_1605" x1="23" y1="23.675" x2="23" y2="39.2" gradientUnits="userSpaceOnUse">
<stop stop-color="#C6AE64"/>
<stop offset="1" stop-color="#9C7238"/>
</linearGradient>
<linearGradient id="paint1_linear_70_1605" x1="22.9987" y1="0.674988" x2="22.9987" y2="23.675" gradientUnits="userSpaceOnUse">
<stop stop-color="#C6AE64"/>
<stop offset="1" stop-color="#9C7238"/>
</linearGradient>
</defs>
</svg>
