<svg width="42" height="44" viewBox="0 0 42 44" fill="none" xmlns="http://www.w3.org/2000/svg">
<path d="M40.7551 0.0877726C40.9537 -0.00812185 41.0947 -0.028525 41.1672 0.0418742C42.382 1.22636 24.1611 21.132 21.6418 24.7675C19.2048 28.2833 15.4953 34.301 15.758 35.4325C17.0595 37.1718 16.9265 39.7443 15.3196 41.5292C13.5085 43.5394 10.5059 43.7996 8.62912 42.1073C6.75172 40.4162 6.69719 37.4046 8.50803 35.3944C9.82488 33.9315 11.7707 33.3998 13.4582 33.869C13.4683 33.8624 13.4768 33.8578 13.4895 33.8524C15.078 33.0866 19.8059 22.6581 19.8059 22.6581L19.8069 22.6552C19.6114 22.8434 19.5008 22.9479 19.4953 22.953C19.4953 22.953 10.1394 28.1742 9.26096 29.8827C9.7262 31.4395 9.35849 33.2527 8.13498 34.6112C6.3239 36.6202 3.32242 36.8797 1.44358 35.1874C-0.432792 33.4961 -0.487483 30.4846 1.32346 28.4745C3.08149 26.5219 5.95847 26.2272 7.84397 27.7587C9.52263 27.3492 14.6584 23.6707 17.7453 21.2128C21.012 18.6111 37.8339 1.07186 40.7551 0.0877726ZM14.549 35.535C13.0672 34.2022 10.68 34.43 9.22776 36.0419C7.77352 37.6551 7.79682 40.0532 9.27659 41.3876C10.7571 42.7205 13.1461 42.4939 14.5998 40.8807C16.0528 39.2662 16.0302 36.8694 14.549 35.535ZM7.36545 28.6151C5.88435 27.2822 3.49855 27.5101 2.04416 29.122C0.590473 30.7352 0.613404 33.1333 2.09397 34.4677C3.5757 35.8004 5.96095 35.574 7.41526 33.9608C8.86833 32.3489 8.84462 29.9509 7.36545 28.6151ZM22.9045 19.4999C22.3667 19.0152 21.5357 19.0585 21.051 19.5956C20.5662 20.134 20.6093 20.9652 21.1477 21.4501C21.6862 21.9346 22.5157 21.8903 23.0012 21.3534C23.4853 20.8156 23.4422 19.9839 22.9045 19.4999ZM22.0266 19.6473C22.4838 19.6473 22.8537 20.0182 22.8537 20.4755C22.8535 20.9326 22.4836 21.3026 22.0266 21.3026C21.5694 21.3026 21.1987 20.9325 21.1985 20.4755C21.1985 20.0183 21.5693 19.6473 22.0266 19.6473Z" fill="url(#paint0_linear_70_1631)"/>
<defs>
<linearGradient id="paint0_linear_70_1631" x1="20.6126" y1="0" x2="20.6126" y2="43.2244" gradientUnits="userSpaceOnUse">
<stop stop-color="#C6AE64"/>
<stop offset="1" stop-color="#9C7238"/>
</linearGradient>
</defs>
</svg>
