<svg width="44" height="41" viewBox="0 0 44 41" fill="none" xmlns="http://www.w3.org/2000/svg">
<path d="M11.2227 40.0996H6.02051L5.54688 36.0244H11.6953L11.2227 40.0996ZM38.4531 36.0244L37.9795 40.0996H32.7783L32.3047 36.0244H38.4531ZM44 31.7598C44 33.3619 42.7016 34.6601 41.0996 34.6602H2.90039C1.29827 34.6601 3.44291e-05 33.3618 0 31.7598V27.1016H44V31.7598ZM43.6787 26.0537H0.321289L5.96191 11.5049H38.0381L43.6787 26.0537ZM35.3301 0.246094C36.8256 0.246094 38.0379 1.45827 38.0381 2.95312V10.2529H33.4648C33.6166 9.96263 33.7109 9.63731 33.7109 9.28711V6.58984C33.7109 5.4301 32.7697 4.48926 31.6094 4.48926H24.8867C23.7263 4.48926 22.7852 5.4301 22.7852 6.58984V9.28711C22.7852 9.63728 22.8795 9.96265 23.0312 10.2529H20.9688C21.1205 9.96265 21.2148 9.63729 21.2148 9.28711V6.58984C21.2148 5.4301 20.2737 4.48926 19.1133 4.48926H12.3906C11.2303 4.48926 10.2891 5.4301 10.2891 6.58984V9.28711C10.2891 9.63741 10.3834 9.96355 10.5352 10.2539H5.96191V2.95312C5.96205 1.45827 7.17452 0.246094 8.66992 0.246094H35.3301Z" fill="url(#paint0_linear_70_1612)"/>
<defs>
<linearGradient id="paint0_linear_70_1612" x1="22" y1="0.246094" x2="22" y2="40.0996" gradientUnits="userSpaceOnUse">
<stop stop-color="#C6AE64"/>
<stop offset="1" stop-color="#9C7238"/>
</linearGradient>
</defs>
</svg>
