<svg width="47" height="46" viewBox="0 0 47 46" fill="none" xmlns="http://www.w3.org/2000/svg">
<path d="M23.2091 0.00484575C24.2188 -0.0362811 25.2222 0.18496 26.1212 0.646447C27.02 1.10787 27.7839 1.79445 28.339 2.63863C28.894 3.48289 29.2219 4.45671 29.2892 5.46481C29.3564 6.47304 29.1608 7.48195 28.7228 8.39254C28.2847 9.30309 27.6189 10.0853 26.7892 10.6621L26.7736 10.6728L26.756 10.6845C26.3328 10.9663 25.9817 11.3435 25.7316 11.7861C25.6176 11.9877 25.5271 12.2011 25.4591 12.4209L43.5831 20.625L43.6212 20.6425C44.5709 21.0972 45.3717 21.8132 45.9298 22.706C46.4874 23.5981 46.7794 24.6306 46.7726 25.6826L46.7736 25.6836C46.7652 27.1386 46.1814 28.5317 45.1495 29.5576C44.1178 30.5833 42.7216 31.1591 41.2667 31.1591H38.0792V45.4326H8.65344V31.1591H5.50695C4.05209 31.1591 2.65595 30.5832 1.62414 29.5576C0.592277 28.5316 0.00847873 27.1376 0.000116166 25.6826C-0.00668555 24.6306 0.285329 23.5981 0.84289 22.706C1.40101 21.8131 2.20176 21.0973 3.15148 20.6425L3.17004 20.6338L3.18859 20.6259L21.4894 12.3242C21.6183 11.4626 21.9026 10.6293 22.3331 9.86715C22.8787 8.90164 23.6422 8.07637 24.5616 7.45699C24.8381 7.26474 25.0602 7.00362 25.2062 6.70016C25.352 6.39674 25.417 6.06049 25.3946 5.72457C25.3722 5.3886 25.2622 5.06454 25.0773 4.78317C24.8923 4.50188 24.6384 4.27292 24.339 4.1191C24.0394 3.96532 23.7047 3.89159 23.3683 3.90524C23.0317 3.91896 22.7042 4.01955 22.4181 4.19723C22.132 4.37491 21.896 4.62338 21.7345 4.91891C21.5731 5.21441 21.4912 5.54707 21.4962 5.88375L17.5939 5.94137C17.5789 4.93102 17.8261 3.93353 18.3107 3.04684C18.7953 2.16027 19.5011 1.41381 20.3595 0.880822C21.2179 0.347902 22.1996 0.0459784 23.2091 0.00484575ZM4.83703 24.163L4.73351 24.2168C4.49714 24.3513 4.29727 24.5437 4.15246 24.7754C4.00789 25.0068 3.92285 25.2699 3.90539 25.541L3.90246 25.6591V25.6611C3.90491 26.0849 4.07555 26.4902 4.37609 26.789C4.6765 27.0877 5.0824 27.2557 5.50598 27.2558H9.10363C9.31138 26.8535 9.58653 26.4833 9.92297 26.163C10.7082 25.4157 11.7615 24.9976 12.8575 24.998H33.8751C34.99 24.998 36.0594 25.4307 36.8478 26.2011C37.1665 26.5127 37.4277 26.8697 37.6271 27.2558H41.2667C41.6904 27.2557 42.0971 27.0878 42.3976 26.789C42.698 26.4902 42.8678 26.0848 42.8702 25.6611V25.6591C42.8725 25.3469 42.7857 25.0401 42.6202 24.7754C42.4552 24.5113 42.2192 24.2989 41.9386 24.164L23.3663 15.7578L4.83703 24.163Z" fill="url(#paint0_linear_70_1597)"/>
<defs>
<linearGradient id="paint0_linear_70_1597" x1="23.3664" y1="24.9981" x2="23.3664" y2="45.4326" gradientUnits="userSpaceOnUse">
<stop stop-color="#C6AE64"/>
<stop offset="1" stop-color="#9C7238"/>
</linearGradient>
</defs>
</svg>
