<svg width="38" height="39" viewBox="0 0 38 39" fill="none" xmlns="http://www.w3.org/2000/svg">
<path d="M37.9971 2.49023H38V37.9697H37.9971V37.9863H35.8633V37.9697H33.4717C33.5356 33.0275 34.1134 29.8348 35.7568 28.6436C35.7062 28.6412 30.9514 28.4487 30.8359 37.9697H28.6904C28.6797 37.9221 27.6343 29.1226 35.0469 26.7871C21.4569 21.5291 24.1505 2.60484 24.167 2.49023H26.2441C25.5788 13.3268 28.3213 19.7045 33.4365 23.458C33.015 22.8589 28.2054 19.6189 28.7949 2.49023H30.9072C30.9634 4.72909 30.3748 18.0146 35.8633 24.2295V23.3145C34.7589 20.555 33.0813 14.3399 33.4248 2.49023H35.8633V2.44922L14.1416 2.46094C14.2073 2.93255 16.722 21.6182 3.26074 26.8418C10.2587 28.7221 9.62905 38.0674 9.63379 38.0674H7.41211C7.29607 28.4597 2.56445 28.5732 2.56445 28.5732C4.20796 29.7716 4.78162 33.106 4.84082 38.0674H0.492188V37.9863H0.295898V0.303711H37.9971V2.49023ZM4.7832 2.4668C5.12432 14.3861 3.48747 20.6223 2.41504 23.3789V24.3135C7.92739 18.1059 7.32399 4.75131 7.37305 2.46582L4.7832 2.4668ZM9.63086 2.46387C9.88666 19.6573 5.29769 22.9007 4.87109 23.5C9.98939 19.7311 12.5163 13.4444 12.0732 2.46289L9.63086 2.46387Z" fill="url(#paint0_linear_70_1622)"/>
<defs>
<linearGradient id="paint0_linear_70_1622" x1="19.1479" y1="0.303711" x2="19.1479" y2="38.0674" gradientUnits="userSpaceOnUse">
<stop stop-color="#C6AE64"/>
<stop offset="1" stop-color="#9C7238"/>
</linearGradient>
</defs>
</svg>
