<svg width="48" height="47" viewBox="0 0 48 47" fill="none" xmlns="http://www.w3.org/2000/svg">
<path d="M44.5034 10.6161C42.1589 3.81373 34.5186 0.643094 31.3522 0.965689C31.2399 4.77571 28.1579 7.83235 24.359 7.83656C20.5599 7.83656 17.4738 4.7833 17.3573 0.97422C9.36723 1.85932 7.35122 4.59074 5.40609 10.6381L5.40534 10.6449C3.7828 18.0022 -0.00012207 21.6719 -0.00012207 21.6719L8.71698 25.003L11.1721 21.1263C11.1341 23.1255 10.4492 30.7506 2.80639 40.8587C2.80639 40.8587 17.798 48.6425 34.1622 45.4558C36.9079 37.2176 38.1225 26.7327 38.4105 21.2555L39.7078 27.1652L48 26.4287C48.0001 21.4557 46.0356 15.0604 44.5034 10.6161Z" fill="url(#paint0_linear_15_13)"/>
<defs>
<linearGradient id="paint0_linear_15_13" x1="23.9999" y1="0.943359" x2="23.9999" y2="46.222" gradientUnits="userSpaceOnUse">
<stop stop-color="#C6AE64"/>
<stop offset="1" stop-color="#9C7238"/>
</linearGradient>
</defs>
</svg>
