<svg width="37" height="34" viewBox="0 0 37 34" fill="none" xmlns="http://www.w3.org/2000/svg">
<path d="M28.9063 0C29.3775 0 29.8191 0.215776 30.1092 0.578928L30.2241 0.743395L36.7762 11.5616C37.0857 12.0728 37.0708 12.7112 36.7526 13.2036L36.6352 13.3619L19.6769 33.4528C19.1022 34.1337 18.0864 34.1792 17.4528 33.5891L17.3231 33.4528L0.364793 13.3619C-0.0206087 12.9053 -0.105107 12.2725 0.132664 11.7363L0.223884 11.5616L6.77597 0.743395C7.02057 0.339521 7.43364 0.0732701 7.89395 0.0130127L8.09377 0H28.9063ZM23.919 13.9091H13.0795L18.4985 27.3113L23.919 13.9091ZM32.1345 13.9091H27.2459L22.7488 25.0287L32.1345 13.9091ZM9.75259 13.9091H4.86396L14.2481 25.0256L9.75259 13.9091ZM11.8308 3.09091H8.95864L4.27813 10.8182H9.62771L11.8308 3.09091ZM21.9626 3.09091H15.0359L12.8328 10.8182H24.1656L21.9626 3.09091ZM28.0398 3.09091H25.1677L27.3708 10.8182H32.7203L28.0398 3.09091Z" fill="url(#paint0_linear_128_274)"/>
<defs>
<linearGradient id="paint0_linear_128_274" x1="18.5" y1="0" x2="18.5" y2="34" gradientUnits="userSpaceOnUse">
<stop stop-color="#C6AE64"/>
<stop offset="1" stop-color="#9C7238"/>
</linearGradient>
</defs>
</svg>
