<svg width="139" height="27" viewBox="0 0 139 27" fill="none" xmlns="http://www.w3.org/2000/svg">
<g clip-path="url(#clip0_7_44)">
<path d="M9.28552 21.6337C8.06471 21.6337 6.93734 21.4467 5.90326 21.0725C4.88364 20.684 3.99311 20.1374 3.23201 19.4324C2.48519 18.7273 1.90345 17.8929 1.48708 16.9289C1.07056 15.9649 0.862305 14.9002 0.862305 13.7349C0.862305 12.5695 1.07056 11.5047 1.48708 10.5409C1.90345 9.57683 2.49226 8.74245 3.25352 8.03724C4.01463 7.33235 4.91238 6.79267 5.9463 6.41867C6.99482 6.0302 8.14371 5.83604 9.39327 5.83604C10.8869 5.83604 12.2153 6.08778 13.3786 6.59128C14.5563 7.09492 15.5256 7.81429 16.2869 8.74953L13.0339 11.6197C12.56 11.073 12.0428 10.663 11.4829 10.3895C10.9372 10.1017 10.3267 9.95791 9.65163 9.95791C9.09156 9.95791 8.58174 10.0443 8.12219 10.2169C7.67693 10.3895 7.29638 10.6412 6.98037 10.9721C6.66453 11.3032 6.4203 11.6989 6.24801 12.1593C6.07556 12.6196 5.98949 13.1447 5.98949 13.7347C5.98949 14.2958 6.07556 14.8138 6.24801 15.2886C6.4203 15.749 6.66453 16.1446 6.98037 16.4755C7.29638 16.8065 7.66986 17.0655 8.10067 17.2524C8.54594 17.4252 9.04146 17.5114 9.58708 17.5114C10.1616 17.5114 10.7217 17.4179 11.2674 17.2309C11.8132 17.0295 12.3948 16.6913 13.0124 16.2166L15.8561 19.7128C14.9368 20.3314 13.8884 20.8063 12.7108 21.1372C11.5332 21.4681 10.3914 21.6336 9.28537 21.6336L9.28552 21.6337ZM11.4397 19.0655V13.3249H15.8561V19.7128L11.4397 19.0655ZM17.8069 21.2884V6.18124H25.2391C26.9195 6.18124 28.3986 6.49058 29.6769 7.10924C30.9551 7.71359 31.9532 8.57692 32.6714 9.69908C33.3895 10.8214 33.7485 12.1594 33.7485 13.7133C33.7485 15.2816 33.3895 16.6339 32.6714 17.7705C31.9532 18.8928 30.9551 19.7633 29.6769 20.3819C28.3986 20.9863 26.9195 21.2884 25.2391 21.2884H17.8069ZM22.8909 17.3174H25.0236C25.7418 17.3174 26.3665 17.1807 26.8979 16.9074C27.4437 16.6339 27.8673 16.2311 28.1689 15.6988C28.4706 15.1521 28.6213 14.4901 28.6213 13.7132C28.6213 12.9507 28.4706 12.3034 28.1689 11.771C27.8673 11.2385 27.4437 10.8357 26.8979 10.5624C26.3665 10.289 25.7418 10.1524 25.0236 10.1524H22.8909V17.3174ZM41.0122 21.6337C39.7483 21.6337 38.5275 21.4898 37.3499 21.202C36.1721 20.9142 35.2027 20.5402 34.4416 20.0798L36.0788 16.3678C36.7969 16.7849 37.594 17.1231 38.47 17.3821C39.3606 17.6267 40.2222 17.749 41.0552 17.749C41.5435 17.749 41.9241 17.7202 42.197 17.6626C42.4841 17.5907 42.6924 17.4972 42.8217 17.3821C42.9509 17.2526 43.0156 17.1015 43.0156 16.9289C43.0156 16.6556 42.8649 16.4397 42.5631 16.2815C42.2616 16.1232 41.8595 15.9937 41.3568 15.893C40.8205 15.7676 40.2818 15.6524 39.7411 15.5476C39.1368 15.4139 38.5399 15.2482 37.953 15.0514C37.3642 14.85 36.8184 14.5837 36.3158 14.2529C35.8275 13.9218 35.4325 13.4902 35.131 12.9579C34.8294 12.4112 34.6785 11.7349 34.6785 10.9292C34.6785 9.9941 34.937 9.14508 35.454 8.38261C35.9855 7.60566 36.7681 6.98699 37.8022 6.52661C38.8506 6.06623 40.1504 5.83588 41.7015 5.83588C42.7211 5.83588 43.7265 5.94397 44.7175 6.15969C45.7084 6.37556 46.5989 6.70645 47.3888 7.15251L45.8592 10.843C45.1124 10.4688 44.3872 10.1884 43.6834 10.0012C42.9941 9.81425 42.3191 9.72064 41.6583 9.72064C41.17 9.72064 40.7823 9.76391 40.4951 9.85013C40.2079 9.93651 39.9996 10.0515 39.8704 10.1955C39.7554 10.3393 39.6981 10.4976 39.6981 10.6702C39.6981 10.9292 39.8489 11.1378 40.1504 11.2961C40.452 11.4401 40.847 11.5623 41.3353 11.663C41.8378 11.7637 42.3836 11.8717 42.9724 11.9867C43.5789 12.1026 44.1764 12.2613 44.7606 12.4615C45.3494 12.6629 45.8879 12.9291 46.3762 13.26C46.879 13.5909 47.281 14.0227 47.5826 14.5549C47.8843 15.0872 48.0351 15.7492 48.0351 16.5404C48.0351 17.4612 47.7693 18.3101 47.238 19.087C46.721 19.8496 45.9454 20.4683 44.9113 20.943C43.8773 21.4035 42.5776 21.6337 41.0122 21.6337ZM54.869 21.5042C53.2461 21.5042 51.9823 21.1158 51.0775 20.3388C50.1726 19.5474 49.7203 18.3389 49.7203 16.713V6.82886H54.589V16.6699C54.589 17.0296 54.6823 17.3102 54.869 17.5115C55.07 17.7131 55.3143 17.8138 55.6014 17.8138C56.0179 17.8138 56.3842 17.7059 56.7002 17.49L57.8635 20.8783C57.49 21.0942 57.0377 21.2523 56.5062 21.353C55.9892 21.4539 55.4435 21.5042 54.869 21.5042ZM48.1046 13.6916V10.1307H57.0017V13.6916H48.1046ZM63.7868 21.5042C62.8534 21.5042 62.0059 21.3172 61.2448 20.943C60.498 20.5545 59.9092 19.9576 59.4784 19.1518C59.0474 18.3318 58.8321 17.2814 58.8321 16.0009V9.48305H63.7007V15.1591C63.7007 15.9935 63.8371 16.5763 64.11 16.9072C64.3829 17.2381 64.7563 17.4036 65.2302 17.4036C65.5105 17.4054 65.786 17.3308 66.0273 17.1877C66.2858 17.0295 66.494 16.7777 66.652 16.4323C66.81 16.0727 66.889 15.605 66.889 15.0295V9.48321H71.7577V21.2884H67.126V17.8785L68.0524 18.8065C67.6358 19.7272 67.0398 20.4107 66.2643 20.8568C65.5032 21.2884 64.6773 21.5042 63.7868 21.5042ZM78.872 21.5042C77.8524 21.5042 76.9045 21.2596 76.0284 20.7704C75.1667 20.2669 74.4773 19.5619 73.9603 18.6554C73.4433 17.7347 73.1847 16.6411 73.1847 15.375C73.1847 14.1089 73.4433 13.0228 73.9603 12.1162C74.4773 11.1954 75.1667 10.4904 76.0284 10.0012C76.9045 9.512 77.8524 9.26749 78.872 9.26749C79.9061 9.26749 80.7534 9.49045 81.4141 9.93651C82.0747 10.3681 82.563 11.0371 82.879 11.9436C83.1949 12.8357 83.3529 13.9796 83.3529 15.3752C83.3529 16.7849 83.2021 17.9433 82.9006 18.8496C82.6133 19.756 82.1393 20.425 81.4787 20.8568C80.8324 21.2884 79.9636 21.5042 78.872 21.5042ZM80.0353 17.7059C80.3944 17.7059 80.7176 17.6195 81.0047 17.4469C81.292 17.2743 81.5217 17.0153 81.6942 16.6699C81.8665 16.3102 81.9527 15.8785 81.9527 15.375C81.9527 14.857 81.8665 14.4325 81.6942 14.1016C81.5217 13.7564 81.292 13.4975 81.0047 13.3249C80.7176 13.1521 80.3944 13.0659 80.0353 13.0659C79.6763 13.0659 79.3532 13.1521 79.066 13.3249C78.7787 13.4975 78.5489 13.7564 78.3765 14.1018C78.2042 14.4327 78.118 14.857 78.118 15.375C78.118 15.8785 78.2042 16.3102 78.3765 16.6699C78.5489 17.0153 78.7787 17.2743 79.066 17.4469C79.3532 17.6195 79.6763 17.7059 80.0353 17.7059ZM82.1035 21.2884V19.6914L82.082 15.375L81.8665 11.0587V5.2748H86.7351V21.2884H82.1035ZM88.6756 21.2884V9.48321H93.5443V21.2884H88.6756ZM91.11 8.53365C90.2196 8.53365 89.5086 8.29623 88.9773 7.82153C88.4458 7.34667 88.1802 6.7568 88.1802 6.05175C88.1802 5.34686 88.4458 4.75683 88.9773 4.28213C89.5086 3.80728 90.2196 3.57001 91.11 3.57001C92.0004 3.57001 92.7114 3.79296 93.2427 4.23902C93.7742 4.68493 94.0398 5.26048 94.0398 5.96553C94.0398 6.71369 93.7742 7.33235 93.2427 7.82153C92.7114 8.29623 92.0004 8.53365 91.11 8.53365ZM101.713 21.5042C100.377 21.5042 99.1923 21.2453 98.1582 20.7273C97.1386 20.1948 96.3343 19.4684 95.7454 18.5475C95.1566 17.6267 94.8621 16.5692 94.8621 15.375C94.8621 14.1808 95.1566 13.1235 95.7454 12.2025C96.3343 11.2818 97.1386 10.5624 98.1582 10.0444C99.1923 9.52648 100.377 9.26749 101.713 9.26749C103.048 9.26749 104.233 9.52648 105.267 10.0444C106.301 10.5624 107.106 11.2818 107.68 12.2025C108.269 13.1233 108.563 14.1808 108.563 15.375C108.563 16.5692 108.269 17.6267 107.68 18.5475C107.106 19.4684 106.301 20.1948 105.267 20.7273C104.233 21.2453 103.048 21.5042 101.713 21.5042ZM101.713 17.7059C102.072 17.7059 102.395 17.6195 102.682 17.4469C102.969 17.2743 103.199 17.0153 103.372 16.6699C103.544 16.3102 103.63 15.8785 103.63 15.375C103.63 14.857 103.544 14.4325 103.372 14.1016C103.199 13.7564 102.969 13.4975 102.682 13.3249C102.395 13.1521 102.072 13.0659 101.713 13.0659C101.354 13.0659 101.031 13.1521 100.743 13.3249C100.456 13.4975 100.226 13.7564 100.054 14.1018C99.8816 14.4327 99.7955 14.857 99.7955 15.375C99.7955 15.8785 99.8816 16.3102 100.054 16.6699C100.226 17.0153 100.456 17.2743 100.743 17.4469C101.031 17.6195 101.354 17.7059 101.713 17.7059ZM114.482 21.5042C113.482 21.5048 112.485 21.3963 111.509 21.1804C110.532 20.9647 109.743 20.684 109.139 20.3388L110.475 17.1231C111.035 17.4541 111.681 17.7131 112.414 17.9C113.161 18.0871 113.886 18.1806 114.59 18.1806C115.178 18.1806 115.573 18.1302 115.775 18.0295C115.99 17.9288 116.098 17.7921 116.098 17.6195C116.098 17.4469 115.976 17.3246 115.731 17.2526C115.487 17.1663 115.164 17.1015 114.762 17.0584C114.316 17.0104 113.871 16.9601 113.426 16.9074C112.94 16.8328 112.458 16.7319 111.983 16.6051C111.495 16.4756 111.049 16.2815 110.647 16.0225C110.245 15.7635 109.922 15.4183 109.678 14.9865C109.434 14.5406 109.312 13.9796 109.312 13.3031C109.312 12.555 109.534 11.8789 109.979 11.2745C110.439 10.6703 111.114 10.1883 112.004 9.82857C112.909 9.45457 114.022 9.26749 115.344 9.26749C116.205 9.26749 117.067 9.34664 117.929 9.50492C118.79 9.66305 119.53 9.90772 120.148 10.2386L118.812 13.4543C118.209 13.1233 117.613 12.9003 117.024 12.7853C116.449 12.6558 115.911 12.591 115.408 12.591C114.791 12.591 114.367 12.6486 114.137 12.7636C113.922 12.8788 113.814 13.0083 113.814 13.1523C113.814 13.3249 113.936 13.4543 114.18 13.5406C114.424 13.627 114.748 13.6916 115.15 13.7349C115.552 13.778 115.99 13.8356 116.464 13.9075C116.953 13.9652 117.436 14.0663 117.907 14.2096C118.396 14.3391 118.841 14.5334 119.243 14.7924C119.645 15.0514 119.968 15.4038 120.212 15.8497C120.456 16.2815 120.578 16.8355 120.578 17.5115C120.578 18.2166 120.356 18.8784 119.911 19.497C119.465 20.1014 118.79 20.5906 117.886 20.9647C116.981 21.3244 115.846 21.5042 114.482 21.5042Z" fill="white" fill-opacity="0.6"/>
<path d="M126.602 10.913L128.517 8.99451M135.698 20.0251L137.612 18.1068M126.602 15.7089L133.304 8.99451M130.91 20.0251L137.612 13.3108M126.602 20.0251L137.612 8.99451" stroke="white" stroke-opacity="0.6" stroke-width="2" stroke-linecap="round"/>
</g>
<defs>
<clipPath id="clip0_7_44">
<rect width="138.212" height="26.276" fill="white" transform="translate(0.217407 0.362)"/>
</clipPath>
</defs>
</svg>
