<svg width="111" height="18" viewBox="0 0 111 18" fill="none" xmlns="http://www.w3.org/2000/svg">
<path d="M7.23644 16.8713H1.2951V0.797607H7.22845C8.86624 0.797607 10.2764 1.11943 11.4589 1.76308C12.6466 2.4014 13.5623 3.32221 14.2059 4.52571C14.8494 5.72389 15.1712 7.15745 15.1712 8.82659C15.1712 10.501 14.8494 11.9399 14.2059 13.1432C13.5674 14.3467 12.6544 15.2702 11.4666 15.9139C10.2789 16.5522 8.86891 16.8713 7.23644 16.8713ZM5.18013 13.5593H7.0873C7.98722 13.5593 8.74845 13.4077 9.3712 13.1041C9.99907 12.7954 10.4725 12.2958 10.7916 11.605C11.1161 10.9091 11.2784 9.98298 11.2784 8.82659C11.2784 7.6704 11.1161 6.74938 10.7916 6.06395C10.4674 5.37339 9.98863 4.87622 9.35543 4.57262C8.72756 4.26412 7.95322 4.10966 7.0324 4.10966H5.18013V13.5593ZM20.7032 16.8713H16.5279L21.9512 0.797607H27.1233L32.5466 16.8713H28.3713L24.5962 4.84754H24.4707L20.7032 16.8713ZM20.146 10.5455H28.8736V13.4964H20.146V10.5455ZM32.4808 3.95274V0.797607H46.0666V3.95274H41.1926V16.8713H37.3626V3.95274H32.4808ZM50.1702 16.8713H45.9949L51.4182 0.797607H56.5903L62.0135 16.8713H57.8382L54.063 4.84754H53.9374L50.1702 16.8713ZM49.613 10.5455H58.3405V13.4964H49.613V10.5455ZM78.1606 0.797607V16.8713H74.8643L68.4678 7.5944H68.3658V16.8713H64.4808V0.797607H67.8244L74.1502 10.059H74.2836V0.797607H78.1606ZM81.3403 16.8713V0.797607H92.5478V3.95274H85.2252V7.24923H91.9748V10.4121H85.2252V13.7164H92.5478V16.8713H81.3403ZM99.6496 0.797607L102.585 5.87569H102.711L105.677 0.797607H110.025L105.175 8.83458L110.182 16.8713H105.724L102.711 11.7384H102.585L99.5712 16.8713H95.1447L100.128 8.83458L95.2703 0.797607H99.6496Z" fill="white" fill-opacity="0.6"/>
<mask id="mask0_7_53" style="mask-type:luminance" maskUnits="userSpaceOnUse" x="0" y="0" width="111" height="18">
<path d="M0.898132 0.483215H110.699V17.2811H0.898132V0.483215Z" fill="white"/>
<path d="M7.23638 16.8713H1.29504V0.797607H7.22839C8.86618 0.797607 10.2764 1.11943 11.4588 1.76308C12.6465 2.4014 13.5622 3.32221 14.2059 4.52571C14.8493 5.72389 15.1711 7.15745 15.1711 8.82659C15.1711 10.501 14.8493 11.9399 14.2059 13.1432C13.5673 14.3467 12.6543 15.2702 11.4666 15.9139C10.2788 16.5522 8.86885 16.8713 7.23638 16.8713ZM5.18007 13.5593H7.08724C7.98716 13.5593 8.74839 13.4077 9.37114 13.1041C9.99901 12.7954 10.4724 12.2958 10.7916 11.605C11.1161 10.9091 11.2783 9.98298 11.2783 8.82659C11.2783 7.6704 11.1161 6.74938 10.7916 6.06395C10.4673 5.37339 9.98857 4.87622 9.35537 4.57262C8.7275 4.26412 7.95316 4.10966 7.03234 4.10966H5.18007V13.5593ZM20.7032 16.8713H16.5279L21.9511 0.797607H27.1232L32.5465 16.8713H28.3712L24.5962 4.84754H24.4706L20.7032 16.8713ZM20.146 10.5455H28.8735V13.4964H20.146V10.5455ZM32.4807 3.95274V0.797607H46.0665V3.95274H41.1925V16.8713H37.3626V3.95274H32.4807ZM50.1701 16.8713H45.9948L51.4181 0.797607H56.5902L62.0135 16.8713H57.8382L54.063 4.84754H53.9374L50.1701 16.8713ZM49.6129 10.5455H58.3405V13.4964H49.6129V10.5455ZM78.1606 0.797607V16.8713H74.8643L68.4678 7.5944H68.3657V16.8713H64.4807V0.797607H67.8243L74.1502 10.059H74.2835V0.797607H78.1606ZM81.3403 16.8713V0.797607H92.5477V3.95274H85.2251V7.24923H91.9748V10.4121H85.2251V13.7164H92.5477V16.8713H81.3403ZM99.6496 0.797607L102.585 5.87569H102.71L105.677 0.797607H110.025L105.175 8.83458L110.182 16.8713H105.724L102.71 11.7384H102.585L99.5711 16.8713H95.1447L100.128 8.83458L95.2702 0.797607H99.6496Z" fill="black"/>
</mask>
<g mask="url(#mask0_7_53)">
<path d="M1.295 16.8713H1.04938V17.117H1.295V16.8713ZM1.295 0.797598V0.552185H1.04938V0.797598H1.295ZM11.4587 1.76307L11.3414 1.97878L11.3426 1.97939L11.4587 1.76307ZM14.2058 4.52571L13.9891 4.64145L13.9893 4.64186L14.2058 4.52571ZM14.2058 13.1432L13.9891 13.0275L13.9889 13.0283L14.2058 13.1432ZM11.4665 15.9139L11.5829 16.1302L11.5835 16.1298L11.4665 15.9139ZM5.18002 13.5593H4.9344V13.8049H5.18002V13.5593ZM9.37109 13.1041L9.47864 13.3247L9.47946 13.3245L9.37109 13.1041ZM10.7915 11.605L10.5691 11.5013L10.5687 11.502L10.7915 11.605ZM10.7915 6.06394L10.5693 6.16842L10.5697 6.16903L10.7915 6.06394ZM9.35532 4.57262L9.24695 4.79324L9.2492 4.79427L9.35532 4.57262ZM5.18002 4.10965V3.86424H4.9344V4.10965H5.18002ZM7.23633 16.6257H1.295V17.117H7.23633V16.6257ZM1.54062 16.8713V0.797598H1.04938V16.8713H1.54062ZM1.295 1.04322H7.22834V0.552185H1.295V1.04322ZM7.22834 1.04322C8.83397 1.04322 10.202 1.35869 11.3414 1.97878L11.5761 1.54736C10.3507 0.880359 8.89829 0.552185 7.22834 0.552185V1.04322ZM11.3426 1.97939C12.4871 2.59456 13.3682 3.48014 13.9891 4.64145L14.4223 4.40996C13.7562 3.16446 12.8059 2.20821 11.5751 1.54674L11.3426 1.97939ZM13.9893 4.64186C14.6098 5.79722 14.9255 7.18899 14.9255 8.82658H15.4167C15.4167 7.1261 15.0887 5.65055 14.4221 4.40955L13.9893 4.64186ZM14.9255 8.82658C14.9255 10.4695 14.6098 11.8668 13.9891 13.0275L14.4223 13.259C15.0887 12.0129 15.4167 10.5324 15.4167 8.82658H14.9255ZM13.9889 13.0281C13.3729 14.1894 12.4945 15.0776 11.3496 15.6979L11.5835 16.1298C12.8142 15.463 13.7619 14.5041 14.4228 13.2584L13.9889 13.0283V13.0281ZM11.3504 15.6975C10.205 16.3129 8.83663 16.6257 7.23633 16.6257V17.117C8.90075 17.117 10.3525 16.7912 11.5829 16.1302L11.3504 15.6975ZM5.18002 13.8047H7.08719V13.3137H5.18002V13.8049V13.8047ZM7.08719 13.8047C8.01374 13.8047 8.8141 13.6488 9.47864 13.3247L9.26355 12.8833C8.68279 13.1664 7.96048 13.3137 7.08719 13.3137V13.8049V13.8047ZM9.47946 13.3245C10.1622 12.9886 10.674 12.4451 11.0146 11.708L10.5687 11.502C10.271 12.1464 9.83549 12.602 9.26273 12.8837L9.47946 13.3245ZM11.0142 11.7089C11.3594 10.9681 11.5239 10.0024 11.5239 8.82658H11.0326C11.0326 9.96351 10.8727 10.8501 10.5691 11.5013L11.0142 11.7089ZM11.5239 8.82658C11.5239 7.65134 11.3596 6.68997 11.0136 5.95885L10.5697 6.16903C10.8725 6.80899 11.0326 7.68945 11.0326 8.82658H11.5239ZM11.014 5.95967C10.6676 5.22241 10.1501 4.68139 9.46143 4.35138L9.2492 4.79427C9.82668 5.07102 10.2667 5.52416 10.5693 6.16842L11.014 5.95967ZM9.46369 4.3524C8.7932 4.02259 7.97933 3.86424 7.03229 3.86424V4.35527C7.92688 4.35527 8.66169 4.50542 9.24695 4.79324L9.46369 4.3524ZM7.03229 3.86424H5.18002V4.35527H7.03229V3.86424ZM4.9344 4.10965V13.5593H5.42564V4.10965H4.9344ZM20.7031 16.8713V17.117H20.8836L20.9375 16.9447L20.7031 16.8713ZM16.5278 16.8713L16.2951 16.7929L16.1857 17.117H16.5278V16.8713ZM21.9511 0.797598V0.552185H21.7747L21.7184 0.71914L21.9511 0.797598ZM27.1232 0.797598L27.3559 0.71914L27.2996 0.552185H27.1232V0.797598ZM32.5464 16.8713V17.117H32.8885L32.7791 16.7929L32.5464 16.8713ZM28.3711 16.8713L28.1368 16.9449L28.1909 17.117H28.3711V16.8713ZM24.5961 4.84753L24.8303 4.77378L24.7764 4.60191H24.5961V4.84753ZM24.4705 4.84753V4.60171H24.2901L24.2362 4.77378L24.4705 4.84753ZM20.1459 10.5455V10.2999H19.9003V10.5455H20.1459ZM28.8734 10.5455H29.1191V10.2999H28.8734V10.5455ZM28.8734 13.4964V13.7422H29.1191V13.4964H28.8734ZM20.1459 13.4964H19.9003V13.7422H20.1459V13.4964ZM20.7031 16.6257H16.5278V17.117H20.7031V16.6257ZM16.7605 16.9498L22.1838 0.876262L21.7184 0.71914L16.2951 16.7929L16.7605 16.9498ZM21.9511 1.04322H27.1232V0.552185H21.9511V1.04322ZM26.8905 0.876262L32.3139 16.9498L32.7791 16.7929L27.3559 0.71914L26.8905 0.876262ZM32.5464 16.6257H28.3711V17.117H32.5464V16.6257ZM28.6055 16.7978L24.8303 4.77378L24.3618 4.92107L28.1368 16.9449L28.6055 16.7978ZM24.5961 4.60191L24.4705 4.60171V5.09294H24.5961V4.60191ZM24.2362 4.77378L20.4688 16.798L20.9375 16.9447L24.7047 4.92087L24.2362 4.77378ZM20.1459 10.7911H28.8734V10.2999H20.1459V10.7911ZM28.6278 10.5453V13.4964H29.1191V10.5455L28.6278 10.5453ZM28.8734 13.251H20.1459V13.742H28.8734V13.251ZM20.3915 13.4964V10.5455H19.9003V13.4964H20.3915ZM32.4807 3.95273H32.2351V4.19835H32.4807V3.95273ZM32.4807 0.797598V0.552185H32.2351V0.797598H32.4807ZM46.0665 0.797598H46.3119V0.552185H46.0665V0.797598ZM46.0665 3.95273V4.19835H46.3119V3.95273H46.0665ZM41.1924 3.95273V3.70712H40.947V3.95294H41.1924V3.95273ZM41.1924 16.8713V17.117H41.438V16.8713H41.1924ZM37.3625 16.8713H37.1169V17.117H37.3625V16.8713ZM37.3625 3.95273H37.6079V3.70712H37.3625V3.95294V3.95273ZM32.7263 3.95273V0.797598H32.2351V3.95273H32.7263ZM32.4807 1.04342H46.0665V0.552185H32.4807V1.04342ZM45.8209 0.797803V3.95294H46.3119V0.797598L45.8209 0.797803ZM46.0665 3.70732L41.1924 3.70712V4.19856L46.0665 4.19835V3.70732ZM40.947 3.95294V16.8715H41.438V3.95273H40.947V3.95294ZM41.1924 16.6259H37.3625V17.1172H41.1924V16.6259ZM37.6079 16.8715V3.95273H37.1169V16.8713H37.6079V16.8715ZM37.3625 3.70712L32.4807 3.70732V4.19835L37.3625 4.19856V3.70712ZM50.1701 16.8715V17.1172H50.3506L50.4044 16.9449L50.1701 16.8715ZM45.9948 16.8715L45.7621 16.7931L45.6527 17.1172H45.9948V16.8715ZM51.418 0.797803V0.55239H51.2417L51.1853 0.719345L51.418 0.797803ZM56.5902 0.797803L56.8229 0.719345L56.7665 0.55239H56.5902V0.797803ZM62.0134 16.8715V17.1172H62.3555L62.2461 16.7931L62.0134 16.8715ZM57.8381 16.8715L57.6038 16.9451L57.6578 17.1172H57.8381V16.8715ZM54.0629 4.84753L54.2972 4.77378L54.2432 4.60191H54.0629V4.84753ZM53.9373 4.84753V4.60171H53.757L53.703 4.77378L53.9373 4.84753ZM49.6129 10.5455V10.2999H49.3673V10.5455H49.6129ZM58.3404 10.5455H58.5858V10.2999H58.3404V10.5455ZM58.3404 13.4964V13.7422H58.5858V13.4964H58.3404ZM49.6129 13.4964H49.3673V13.7422H49.6129V13.4964ZM50.1701 16.6257H45.9948V17.117H50.1701V16.6257ZM46.2275 16.9498L51.6508 0.876262L51.1853 0.719345L45.7621 16.7929L46.2275 16.9498ZM51.418 1.04322H56.5902V0.55239H51.418V1.04322ZM56.3574 0.876262L61.7807 16.9498L62.2461 16.7929L56.8229 0.719345L56.3574 0.876262ZM62.0134 16.6257H57.8381V17.117H62.0134V16.6257ZM58.0723 16.7978L54.2972 4.77378L53.8287 4.92107L57.6038 16.9451L58.0723 16.7978ZM54.0629 4.60191L53.9373 4.60171V5.09294H54.0629V4.60191ZM53.703 4.77378L49.9357 16.798L50.4044 16.9447L54.1717 4.92087L53.703 4.77378ZM49.6129 10.7911H58.3404V10.2999H49.6129V10.7911ZM58.0948 10.5453V13.4964H58.5858V10.5455L58.0948 10.5453ZM58.3404 13.251H49.6129V13.742H58.3404V13.251ZM49.8585 13.4964V10.5455H49.3673V13.4964H49.8585ZM78.1605 0.797598H78.4061V0.552185H78.1605V0.797598ZM78.1605 16.8713V17.117H78.4061V16.8713H78.1605ZM74.8642 16.8713L74.662 17.0106L74.7354 17.117H74.8642V16.8713ZM68.4677 7.59439L68.6699 7.45509L68.5967 7.34878H68.4677V7.59439ZM68.3657 7.59439V7.34878H68.1201V7.5946L68.3657 7.59439ZM68.3657 16.8713V17.117H68.6113V16.8713H68.3657ZM64.4807 16.8713H64.2352V17.117H64.4807V16.8713ZM64.4807 0.797598V0.552185H64.2352V0.797598H64.4807ZM67.8243 0.797598L68.0268 0.659118L67.9537 0.552185H67.8243V0.797598ZM74.1501 10.059L73.9473 10.1975L74.0204 10.3044H74.1501V10.059ZM74.2834 10.059V10.3044H74.5291V10.059H74.2834ZM74.2834 0.797598V0.552185H74.0378V0.797598H74.2834ZM77.9151 0.797598V16.8713H78.4061V0.797598H77.9151ZM78.1605 16.6257H74.8642V17.117H78.1605V16.6257ZM75.0664 16.7318L68.6699 7.45509L68.2655 7.73369L74.662 17.0106L75.0664 16.7318ZM68.4677 7.34878H68.3657V7.84001H68.4677V7.34878ZM68.1201 7.5946V16.8713H68.6113V7.59439L68.1201 7.5946ZM68.3657 16.6257H64.4807V17.117H68.3657V16.6257ZM64.7263 16.8713V0.797598H64.2352V16.8713H64.7263ZM64.4807 1.04322H67.8243V0.552185H64.4807V1.04322ZM67.6214 0.936078L73.9473 10.1975L74.3529 9.92029L68.0268 0.659118L67.6214 0.936078ZM74.1501 10.3044H74.2834V9.81335H74.1501V10.3044ZM74.5291 10.059V0.797598H74.0378V10.059H74.5291ZM74.2834 1.04322H78.1605V0.552185H74.2834V1.04322ZM81.3402 16.8713H81.0946V17.117H81.3402V16.8713ZM81.3402 0.797598V0.552185H81.0946V0.797598H81.3402ZM92.5477 0.797598H92.7933V0.552185H92.5477V0.797598ZM92.5477 3.95273V4.19835H92.7933V3.95273H92.5477ZM85.225 3.95273V3.70712H84.9796V3.95294H85.225V3.95273ZM85.225 7.24922H84.9796V7.49463H85.225V7.24922ZM91.9747 7.24922H92.2203V7.00339H91.9747V7.24922ZM91.9747 10.4121V10.6575H92.2203V10.4119L91.9747 10.4121ZM85.225 10.4121V10.1663H84.9796V10.4121H85.225ZM85.225 13.7164H84.9796V13.9618H85.225V13.7164ZM92.5477 13.7164H92.7933V13.4706H92.5477V13.7164ZM92.5477 16.8713V17.117H92.7933V16.8713H92.5477ZM81.5856 16.8713V0.797598H81.0946V16.8713H81.5856ZM81.3402 1.04322H92.5477V0.552185H81.3402V1.04322ZM92.302 0.797598V3.95273H92.7933V0.797598H92.302ZM92.5477 3.70712H85.225V4.19835H92.5477V3.70712ZM84.9796 3.95294V7.24922L85.4706 7.24901V3.95294H84.9796ZM85.225 7.49463L91.9747 7.49484V7.00339L85.225 7.0036V7.49463ZM91.7293 7.24901V10.4119H92.2203V7.24922L91.7293 7.24901ZM91.9747 10.1665L85.225 10.1663V10.6575H91.9747V10.1665ZM84.9796 10.4121V13.7164L85.4706 13.7162V10.4119L84.9796 10.4121ZM85.225 13.9618H92.5477V13.4706H85.225V13.9618ZM92.302 13.7162V16.8713H92.7933V13.7164L92.302 13.7162ZM92.5477 16.6257H81.3402V17.117H92.5477V16.6257ZM99.6495 0.797598L99.8621 0.674687L99.7912 0.552185H99.6495V0.797598ZM102.585 5.87568L102.372 5.99859L102.443 6.1213H102.585V5.87568ZM102.71 5.87568V6.1213H102.851L102.922 5.99941L102.71 5.87568ZM105.677 0.797598V0.552185H105.536L105.465 0.673867L105.677 0.797598ZM110.025 0.797598L110.235 0.924607L110.46 0.552185H110.025V0.797598ZM105.175 8.83457L104.965 8.70756L104.887 8.83662L104.966 8.96445L105.175 8.83457ZM110.182 16.8713V17.117H110.624L110.39 16.7415L110.182 16.8713ZM105.724 16.8713L105.513 16.9957L105.584 17.117H105.724V16.8713ZM102.71 11.7383L102.922 11.614L102.851 11.4929H102.71V11.7383ZM102.585 11.7383V11.4929H102.444L102.373 11.614L102.585 11.7383ZM99.571 16.8713V17.117H99.7115L99.7828 16.9957L99.571 16.8713ZM95.1446 16.8713L94.9358 16.7419L94.7033 17.117H95.1446V16.8713ZM100.128 8.83457L100.337 8.96383L100.416 8.83621L100.338 8.70736L100.128 8.83436V8.83457ZM95.2701 0.797598V0.552185H94.8346L95.06 0.924811L95.2701 0.797598ZM99.4368 0.92051L102.372 5.99859L102.797 5.75298L99.8621 0.674892L99.4368 0.92051ZM102.585 6.1213H102.71V5.63006H102.585V6.1213ZM102.922 5.99941L105.889 0.921534L105.465 0.673867L102.498 5.75175L102.922 5.99941ZM105.677 1.04322H110.025V0.552185H105.677V1.04322ZM109.815 0.670795L104.965 8.70756L105.385 8.96137L110.235 0.924607L109.815 0.67059V0.670795ZM104.966 8.96445L109.974 17.0012L110.39 16.7415L105.383 8.70469L104.966 8.96445ZM110.182 16.6257H105.724V17.117H110.182V16.6257ZM105.936 16.747L102.922 11.614L102.499 11.8627L105.513 16.9957L105.936 16.747ZM102.71 11.4929H102.585V11.984H102.71V11.4929ZM102.373 11.614L99.3592 16.747L99.7828 16.9957L102.797 11.8627L102.373 11.614ZM99.571 16.6257H95.1446V17.117H99.571V16.6257ZM95.3531 17.0008L100.337 8.96383L99.9197 8.7051L94.9358 16.7419L95.3531 17.0008ZM100.338 8.70736L95.4803 0.67059L95.06 0.924811L99.918 8.96158L100.338 8.70736ZM95.2701 1.04342H99.6495V0.552185H95.2701V1.04342Z" fill="white" fill-opacity="0.6"/>
</g>
</svg>
