<svg width="42" height="46" viewBox="0 0 42 46" fill="none" xmlns="http://www.w3.org/2000/svg">
<path d="M11.9361 27.8074C11.6722 27.9732 11.4026 28.1415 11.1324 28.3028C11.6306 33.1941 15.8583 37.0139 21 37.0139C26.4768 37.0139 30.9167 32.6797 30.9167 27.3333V27.3208C30.6061 27.3753 30.2851 27.4238 29.9743 27.4707L29.9379 27.4762C29.5606 27.5333 29.1879 27.5896 28.8053 27.6568C27.1698 27.9445 25.8489 27.8281 24.7028 27.4153C23.6374 27.0315 22.834 26.4229 22.2416 25.9737L22.1863 25.9318C21.5437 25.4453 21.1235 25.1414 20.6034 24.9542C20.1304 24.7838 19.4533 24.6729 18.333 24.8702C16.6911 25.159 15.2224 25.8409 13.8656 26.6227C13.2849 26.9571 12.7465 27.2967 12.2153 27.6315L11.9361 27.8074Z" fill="url(#paint0_linear_15_15)"/>
<path fill-rule="evenodd" clip-rule="evenodd" d="M0 18.2222C0 9.63218 -2.78155e-07 5.33718 2.73366 2.66858C5.46735 2.71532e-07 9.86711 0 18.6667 0H23.3333C32.1328 0 36.5328 2.71532e-07 39.2663 2.66858C42 5.33718 42 9.63218 42 18.2222V27.3333C42 35.9233 42 40.2185 39.2663 42.8869C36.5328 45.5556 32.1328 45.5556 23.3333 45.5556H18.6667C9.86711 45.5556 5.46735 45.5556 2.73366 42.8869C-2.78155e-07 40.2185 0 35.9233 0 27.3333V18.2222ZM34.4167 27.3333C34.4167 26.8338 34.388 26.3411 34.3322 25.8562L34.3789 25.825L34.167 24.8055C32.9604 18.7816 27.524 14.2361 21 14.2361C13.5902 14.2361 7.58333 20.1 7.58333 27.3333C7.58333 34.5666 13.5902 40.4306 21 40.4306C28.4097 40.4306 34.4167 34.5666 34.4167 27.3333ZM11.6667 7.40278C10.7002 7.40278 9.91667 8.16763 9.91667 9.11111C9.91667 10.0546 10.7002 10.8194 11.6667 10.8194H30.3333C31.2998 10.8194 32.0833 10.0546 32.0833 9.11111C32.0833 8.16763 31.2998 7.40278 30.3333 7.40278H11.6667Z" fill="url(#paint1_linear_15_15)"/>
<defs>
<linearGradient id="paint0_linear_15_15" x1="21.0246" y1="24.7651" x2="21.0246" y2="37.0139" gradientUnits="userSpaceOnUse">
<stop stop-color="#C6AE64"/>
<stop offset="1" stop-color="#9C7238"/>
</linearGradient>
<linearGradient id="paint1_linear_15_15" x1="21" y1="0" x2="21" y2="45.5556" gradientUnits="userSpaceOnUse">
<stop stop-color="#C6AE64"/>
<stop offset="1" stop-color="#9C7238"/>
</linearGradient>
</defs>
</svg>
