<svg width="28" height="49" viewBox="0 0 28 49" fill="none" xmlns="http://www.w3.org/2000/svg">
<path d="M24.1034 49.0001H3.01292C1.35581 49.0001 0 47.6337 0 45.9636V3.45321C0 1.78315 1.35581 0.416748 3.01292 0.416748H24.1034C25.7605 0.416748 27.1163 1.78315 27.1163 3.45321V45.9636C27.1163 47.6337 25.7605 49.0001 24.1034 49.0001Z" fill="url(#paint0_linear_15_253)"/>
<path d="M24.8566 5.50098H2.25969V40.5262H24.8566V5.50098Z" fill="#383324"/>
<path d="M13.5748 46.8595C12.3891 46.8595 11.425 45.8954 11.425 44.7097C11.425 43.5239 12.3891 42.5583 13.5748 42.5583C14.7606 42.5583 15.7262 43.5239 15.7262 44.7097C15.7262 45.8954 14.7606 46.8595 13.5748 46.8595ZM13.5748 43.3175C12.8081 43.3175 12.1841 43.9415 12.1841 44.7097C12.1841 45.4764 12.8081 46.1004 13.5748 46.1004C14.3431 46.1004 14.9671 45.4764 14.9671 44.7097C14.9671 43.9415 14.3431 43.3175 13.5748 43.3175Z" fill="#383324"/>
<path d="M13.5733 3.55932C13.9817 3.55932 14.3127 3.22829 14.3127 2.81994C14.3127 2.4116 13.9817 2.08057 13.5733 2.08057C13.165 2.08057 12.834 2.4116 12.834 2.81994C12.834 3.22829 13.165 3.55932 13.5733 3.55932Z" fill="#383324"/>
<defs>
<linearGradient id="paint0_linear_15_253" x1="13.5581" y1="0.416748" x2="13.5581" y2="49.0001" gradientUnits="userSpaceOnUse">
<stop stop-color="#C6AE64"/>
<stop offset="1" stop-color="#9C7238"/>
</linearGradient>
</defs>
</svg>
