<svg width="50" height="50" viewBox="0 0 50 50" fill="none" xmlns="http://www.w3.org/2000/svg">
<path d="M0 12C0 5.37258 5.37258 0 12 0H38C44.6274 0 50 5.37258 50 12V38C50 44.6274 44.6274 50 38 50H12C5.37258 50 0 44.6274 0 38V12Z" fill="url(#paint0_linear_227_1448)"/>
<path d="M37.4815 12.9453C37.6845 13.2769 37.7845 13.6616 37.7296 14.0459L36.0801 34.2295C35.9831 34.8117 35.5946 35.3935 35.1094 35.6846C34.8184 35.8786 34.5277 35.9765 34.1397 35.9766C33.8487 35.9766 33.5574 35.8792 33.3633 35.7822L31.5196 35.0059L25.6006 32.4824C25.1155 32.2884 24.5331 32.4827 24.3389 32.9678C24.1449 33.453 24.3391 34.0354 24.8243 34.2295L27.0557 35.0059L24.7266 37.7227C24.3385 38.2078 23.8536 38.4023 23.2715 38.4023C23.0775 38.4023 22.7859 38.4017 22.5919 38.3047C21.8157 38.0135 21.3301 37.2372 21.3301 36.4609V31.7334C21.5201 31.6826 21.6972 31.5763 21.834 31.415L37.4815 12.9453ZM20.3087 30.123C20.2899 30.1452 20.2724 30.1681 20.2559 30.1914L13.1798 27.2432C12.5005 26.9521 12.0147 26.3691 12.0147 25.5928C11.9178 24.8166 12.3062 24.1371 12.9854 23.749L34.9161 12.2021C35.1427 12.0888 35.3986 12.0194 35.6612 12L20.3087 30.123Z" fill="white"/>
<defs>
<linearGradient id="paint0_linear_227_1448" x1="25" y1="0" x2="25" y2="50" gradientUnits="userSpaceOnUse">
<stop stop-color="#C6AE64"/>
<stop offset="1" stop-color="#9C7238"/>
</linearGradient>
</defs>
</svg>
