<svg width="48" height="52" viewBox="0 0 48 52" fill="none" xmlns="http://www.w3.org/2000/svg">
<path d="M46.5408 28.4067C45.396 27.159 43.2631 27.4244 41.8368 28.4794C40.5333 29.5656 31.6224 35.4219 31.6224 35.4219H20.7919L20.7577 35.439C20.1873 35.4201 19.7415 34.9411 19.7584 34.3717C19.7792 33.8011 20.2591 33.3543 20.8258 33.3741L20.7917 33.3543C22.728 33.3543 28.7714 33.3543 28.7714 33.3543C30.3733 33.3543 31.6731 32.0564 31.6731 30.4555C31.6731 28.8516 30.3733 27.5529 28.7714 27.5529C27.3206 27.5529 24.4207 27.5529 17.1683 27.5529C9.91401 27.5529 7.61687 30.5765 5.07792 33.1135L0.472265 37.1374C0.171844 37.3981 0 37.7731 0 38.1717V51.5439C0 51.7206 0.105828 51.884 0.268226 51.9586C0.430726 52.0323 0.621562 52.0068 0.757554 51.8887L9.65909 44.2566C9.97272 43.9902 10.3921 43.8769 10.7964 43.9496L24.6702 46.4716C25.6374 46.6473 26.633 46.4254 27.4396 45.8578C27.4396 45.8578 45.1446 33.5453 46.4537 32.4562C47.6988 31.3132 47.6856 29.6545 46.5408 28.4067Z" fill="url(#paint0_linear_15_64)"/>
<path d="M19.698 22.1744C21.8837 23.6716 24.6343 24.7691 24.6343 24.7691C24.8874 24.8514 25.2786 24.9231 25.4145 24.9231C25.5487 24.9231 25.9397 24.8514 26.1929 24.7691C26.1929 24.7691 28.9416 23.6716 31.1292 22.1744C34.4578 19.9055 39.8569 15.4519 39.8569 9.17341C39.8569 2.80514 36.2543 -0.0805568 32.291 0.0017088C29.2684 0.056451 27.4832 1.84263 26.2854 3.60332C26.0663 3.93014 25.7394 4.13885 25.4145 4.14739C25.0877 4.13885 24.7609 3.93014 24.5436 3.60332C23.3459 1.84263 21.5588 0.056451 18.5362 0.0017088C14.5709 -0.0805568 10.9722 2.80514 10.9722 9.17341C10.9722 15.4519 16.3693 19.9056 19.698 22.1744ZM16.7264 3.98956C17.0305 3.61652 17.4102 3.30015 17.8447 3.0365C18.2736 2.77772 18.8309 2.91462 19.0896 3.34352C19.3505 3.77232 19.2124 4.33061 18.7835 4.58847C18.4983 4.76225 18.2886 4.94364 18.1336 5.13528C17.8182 5.52447 17.2458 5.58206 16.8566 5.26569C16.4694 4.94932 16.4109 4.37885 16.7264 3.98956ZM14.6011 9.76948C14.6011 9.16315 14.6635 8.60019 14.7975 8.08253C14.9241 7.59695 15.421 7.30699 15.9046 7.43456C16.3901 7.56019 16.6791 8.05612 16.5544 8.54057C16.4657 8.87685 16.4147 9.28675 16.4147 9.76948C16.4147 10.2474 16.4638 10.7972 16.5676 11.4131C16.7339 12.3992 17.1534 13.3154 17.7672 14.1759C18.0582 14.5829 17.9637 15.1496 17.5556 15.4406C17.1457 15.7315 16.5808 15.637 16.29 15.2291C15.5476 14.1928 14.9978 13.0159 14.7786 11.7153C14.6615 11.0183 14.6011 10.3721 14.6011 9.76948Z" fill="url(#paint1_linear_15_64)"/>
<defs>
<linearGradient id="paint0_linear_15_64" x1="23.6968" y1="27.5529" x2="23.6968" y2="52" gradientUnits="userSpaceOnUse">
<stop stop-color="#C6AE64"/>
<stop offset="1" stop-color="#9C7238"/>
</linearGradient>
<linearGradient id="paint1_linear_15_64" x1="25.4145" y1="0" x2="25.4145" y2="24.9231" gradientUnits="userSpaceOnUse">
<stop stop-color="#C6AE64"/>
<stop offset="1" stop-color="#9C7238"/>
</linearGradient>
</defs>
</svg>
