<svg width="143" height="27" viewBox="0 0 143 27" fill="none" xmlns="http://www.w3.org/2000/svg">
<path d="M81.88 13.5001V26.638H143V0.362H142.229C141.601 0.390686 140.23 1.56172 135.431 6.1885L129.434 12.015L126.777 9.47298C124.15 6.98811 124.064 6.93116 122.665 6.93116H121.265L124.607 10.1298L127.92 13.3573L124.378 16.8417L120.865 20.3546H122.151C123.407 20.3546 123.522 20.269 126.149 17.6413C127.634 16.156 128.977 14.928 129.148 14.928C129.319 14.928 130.662 16.1562 132.147 17.6413L134.86 20.3546H137.773L134.317 16.9845C132.432 15.1565 130.805 13.5857 130.719 13.5286C130.547 13.4145 141.058 3.24678 141.372 3.21809C141.486 3.21809 141.543 8.13067 141.515 14.1284L141.429 25.0671H83.4507V2.21853L110.155 2.07574L136.859 1.93295L137.659 1.33308C138.087 0.990335 138.43 0.619114 138.43 0.53348C138.43 0.447846 125.721 0.362 110.155 0.362H81.88V13.5001ZM3.88051 7.73076C2.76663 8.30194 2.10961 8.90159 1.48149 9.93004C0.709933 11.158 0.624512 11.5575 0.624512 13.4714C0.624512 15.8704 1.19569 17.2986 2.68079 18.6981C4.1661 20.126 5.19434 20.3546 10.0495 20.3546H14.4768V18.0697H10.3067C5.53688 18.0697 4.59448 17.8126 3.56645 16.1276C2.70947 14.7568 2.68079 12.4147 3.50908 11.3008C4.85159 9.50145 5.27998 9.35865 10.0782 9.27302L14.4766 9.18739V6.93095H9.93544C5.53688 6.93095 5.36561 6.95963 3.88051 7.73076ZM15.6189 7.10243C15.6189 7.18806 17.1612 9.07307 19.0464 11.2723L22.4735 15.2993V20.3546H24.7584V15.4418L27.5573 12.1574C29.0711 10.3295 30.699 8.41605 31.1274 7.90182L31.9272 6.93073L30.4134 6.95942H28.8996L26.3863 9.95831C25.0155 11.5862 23.7873 12.9285 23.673 12.9C23.5589 12.9 22.3878 11.5577 21.0455 9.92983L18.6178 6.95921L17.1325 6.93095C16.3044 6.93095 15.6189 7.01679 15.6189 7.10243ZM33.3267 13.6429V20.3546H39.1245C45.6363 20.3546 46.3789 20.1834 47.3785 18.3268C48.2068 16.7559 48.064 15.328 46.9501 14.2141L45.979 13.243L46.6645 12.7288C47.5213 12.1006 47.8355 10.1869 47.3213 8.9018C46.6073 7.21675 45.4078 6.93116 38.9817 6.93116H33.3267V13.6429ZM44.9223 9.90136C45.4363 10.6153 45.4363 11.2437 44.9223 11.9578C44.5508 12.4434 44.094 12.5003 40.8952 12.5862L37.2964 12.7003L37.3823 13.5857L37.4679 14.4997L41.0951 14.5853C44.8367 14.6711 45.0651 14.7281 45.4363 15.9848C45.5791 16.4703 45.465 16.8131 44.9223 17.3558C44.2083 18.0412 44.1225 18.0697 40.0384 18.0697H35.8969V9.18739L40.2097 9.27302C44.0653 9.35865 44.5508 9.41582 44.9223 9.90136ZM49.8918 13.6429V20.3546H61.8874V18.0697H52.1767V9.21586H61.8874V6.93095H49.8918V13.6429ZM63.8867 13.6429V20.3546H66.4572V9.18739L70.7697 9.27302C74.9111 9.35865 75.1111 9.38734 75.6251 10.0444C76.3391 10.9296 76.3391 12.9289 75.6251 13.8142C75.1111 14.4425 74.854 14.4997 71.6267 14.5855L68.1707 14.6996V16.6418H70.6841L73.1689 16.6703L74.7397 18.4981L76.3106 20.2975L78.0241 20.3262L79.7092 20.3546L77.7672 18.384L75.8251 16.4418L76.7103 15.8135C77.967 14.928 78.4525 13.7857 78.4525 11.872C78.4525 9.78725 77.7672 8.44473 76.2819 7.58797C75.2252 6.98811 74.8253 6.93116 69.5417 6.93116H63.8867V13.6429Z" fill="white" fill-opacity="0.6"/>
<path d="M88.7349 13.6428V20.3546L94.1044 20.3259C99.6451 20.3259 101.53 20.0118 101.359 19.2122C101.302 18.9836 101.359 18.8695 101.473 18.9836C101.816 19.355 102.416 18.6408 102.73 17.4413C103.129 16.0419 102.701 14.6139 101.673 13.7856L100.959 13.2429L101.787 12.529C102.473 11.9291 102.587 11.615 102.587 10.4155C102.587 7.50227 101.102 6.93109 93.5901 6.93109H88.7349V13.6428ZM100.016 9.6157C100.616 10.0441 100.73 11.5292 100.159 12.1862C99.8735 12.5574 99.1024 12.6431 96.275 12.6431H92.7334V14.3568H96.1035C98.674 14.3568 99.6166 14.4711 100.102 14.8137C100.93 15.385 100.959 16.9273 100.131 17.67C99.5879 18.1553 99.0454 18.2124 95.1895 18.2124H90.877L90.7912 13.6998L90.7056 9.21579H95.1039C98.3312 9.21579 99.6166 9.33011 100.016 9.6157ZM109.527 7.30231C107.756 7.81654 106.871 8.44466 105.928 9.84413C105.3 10.8152 105.129 11.4151 105.072 13.1858C104.986 15.1279 105.043 15.5278 105.786 16.9273C107.042 19.2979 108.527 20.0977 111.983 20.2974C115.239 20.4689 117.124 20.0403 118.552 18.8695C120.209 17.4985 120.837 16.0134 120.866 13.4714C120.866 11.5579 120.78 11.158 120.009 9.92998C118.752 7.87349 117.238 7.18799 113.668 7.0452C111.869 6.95957 110.384 7.07389 109.527 7.30231ZM116.953 9.78718C118.01 10.4438 118.981 12.3005 119.009 13.6428C119.009 14.9851 117.867 16.9845 116.724 17.6413C115.896 18.0981 115.211 18.2124 112.812 18.2124C110.327 18.2124 109.813 18.1268 109.099 17.6128C106.3 15.5278 106.271 11.5007 109.07 9.78718C110.441 8.95889 115.582 8.95889 116.953 9.78718ZM53.9478 13.557L54.0337 14.4996H61.4594L61.545 13.557L61.6309 12.6433H53.8622L53.9478 13.557Z" fill="white" fill-opacity="0.6"/>
</svg>
