<svg width="47" height="52" viewBox="0 0 47 52" fill="none" xmlns="http://www.w3.org/2000/svg">
<path d="M13.5019 16.9838C16.1308 17.1768 18.2979 19.0157 18.9828 21.4755C19.0269 21.634 19.1694 21.7449 19.334 21.7449H24.0717C24.3323 21.7449 24.5498 21.9439 24.5731 22.2034L26.6938 45.8968C26.717 46.1564 26.9346 46.3553 27.1953 46.3553H45.5966C45.8923 46.3553 46.1244 46.1016 46.098 45.807L42.6245 6.99196C42.6014 6.7324 42.3839 6.53344 42.1232 6.53344H35.1097C34.9636 6.53344 34.8426 6.42101 34.8308 6.27537C34.5477 2.76357 31.6158 0 28.0313 0C24.4468 0 21.5154 2.76357 21.2319 6.27549C21.2201 6.42113 21.0991 6.5335 20.953 6.5335H14.5342C14.2736 6.5335 14.0561 6.7324 14.0328 6.99196L13.1727 16.5954C13.155 16.7941 13.303 16.9692 13.5019 16.9838ZM28.0319 1.16965C30.9521 1.16965 33.3564 3.39421 33.654 6.23723C33.6705 6.39527 33.5482 6.53356 33.3893 6.53356H22.6744C22.5155 6.53356 22.3932 6.39527 22.4098 6.23723C22.7074 3.39421 25.1116 1.16965 28.0319 1.16965Z" fill="url(#paint0_linear_15_60)"/>
<path d="M0.696959 52H25.2539C25.6633 52 25.9845 51.6488 25.9481 51.241L23.4644 23.4915C23.4322 23.1321 23.1311 22.8567 22.7702 22.8567H18.0804C17.8973 22.8567 17.7424 22.7191 17.7229 22.5371C17.4542 20.0297 15.3377 18.0752 12.7583 18.0752C10.1794 18.0752 8.06247 20.0293 7.79371 22.5371C7.77418 22.7192 7.61935 22.8567 7.43619 22.8567H3.18068C2.81983 22.8567 2.51867 23.1321 2.4865 23.4915L0.00283547 51.241C-0.0337034 51.6488 0.287563 52 0.696959 52ZM8.98352 22.4535C9.28077 20.6366 10.8573 19.2448 12.7577 19.2448C14.658 19.2448 16.2346 20.6366 16.5322 22.4534C16.5669 22.6644 16.4058 22.8568 16.1921 22.8568H9.32369C9.10997 22.8567 8.94905 22.6644 8.98352 22.4535Z" fill="url(#paint1_linear_15_60)"/>
<defs>
<linearGradient id="paint0_linear_15_60" x1="29.6357" y1="0" x2="29.6357" y2="46.3553" gradientUnits="userSpaceOnUse">
<stop stop-color="#C6AE64"/>
<stop offset="1" stop-color="#9C7238"/>
</linearGradient>
<linearGradient id="paint1_linear_15_60" x1="12.9754" y1="18.0752" x2="12.9754" y2="52" gradientUnits="userSpaceOnUse">
<stop stop-color="#C6AE64"/>
<stop offset="1" stop-color="#9C7238"/>
</linearGradient>
</defs>
</svg>
