<svg width="48" height="31" viewBox="0 0 48 31" fill="none" xmlns="http://www.w3.org/2000/svg">
<path d="M0 25.3013C0 28.7385 2.61699 30.3399 4.7262 30.3399H42.8483C45.3871 30.3399 47.5745 28.3479 47.5745 25.3013H0Z" fill="url(#paint0_linear_15_242)"/>
<path d="M14.6864 24.1685H33.1225C35.7785 24.1685 37.6143 21.9421 37.6143 19.6376V18.0753C42.8483 18.0753 46.6761 14.1303 46.6761 9.52128C46.6761 4.83416 42.9264 0.967285 38.5908 0.967285H10.1555V19.5986C10.1555 22.1374 12.3428 24.1685 14.6864 24.1685ZM37.5753 4.48262H38.5518C42.1452 4.48262 43.317 7.88078 43.278 9.52128C43.278 12.2164 41.2859 14.7552 37.5753 14.5209V4.48262Z" fill="url(#paint1_linear_15_242)"/>
<defs>
<linearGradient id="paint0_linear_15_242" x1="23.7872" y1="25.3013" x2="23.7872" y2="30.3399" gradientUnits="userSpaceOnUse">
<stop stop-color="#C6AE64"/>
<stop offset="1" stop-color="#9C7238"/>
</linearGradient>
<linearGradient id="paint1_linear_15_242" x1="28.4158" y1="0.967285" x2="28.4158" y2="24.1685" gradientUnits="userSpaceOnUse">
<stop stop-color="#C6AE64"/>
<stop offset="1" stop-color="#9C7238"/>
</linearGradient>
</defs>
</svg>
