<svg width="42" height="42" viewBox="0 0 42 42" fill="none" xmlns="http://www.w3.org/2000/svg">
<path d="M3.07539 38.9245C6.15075 42 11.1005 42 21 42C30.8994 42 35.8493 42 38.9245 38.9245C42 35.8493 42 30.8994 42 21C42 11.1005 42 6.15075 38.9245 3.07539C35.8493 -2.50339e-07 30.8994 0 21 0C11.1005 0 6.15075 -2.50339e-07 3.07539 3.07539C-2.50339e-07 6.15075 0 11.1005 0 21C0 30.8994 -2.50339e-07 35.8493 3.07539 38.9245Z" fill="url(#paint0_linear_21_297)"/>
<path d="M15.6379 28.1348C14.9391 27.6167 13.9527 27.7633 13.4347 28.4622C12.9167 29.1611 13.0633 30.1475 13.7621 30.6653C15.8042 32.179 18.3015 33.0751 21 33.0751C23.6985 33.0751 26.1958 32.179 28.2378 30.6653C28.9367 30.1475 29.0833 29.1611 28.5652 28.4622C28.0474 27.7633 27.061 27.6167 26.3621 28.1348C24.8325 29.2684 22.9864 29.9251 21 29.9251C19.0136 29.9251 17.1675 29.2684 15.6379 28.1348Z" fill="#383324"/>
<path d="M29.4001 17.85C29.4001 19.5896 28.4599 21 27.3001 21C26.1402 21 25.2001 19.5896 25.2001 17.85C25.2001 16.1102 26.1402 14.7 27.3001 14.7C28.4599 14.7 29.4001 16.1102 29.4001 17.85Z" fill="#383324"/>
<path d="M16.8 17.85C16.8 19.5896 15.8598 21 14.7 21C13.5402 21 12.6 19.5896 12.6 17.85C12.6 16.1102 13.5402 14.7 14.7 14.7C15.8598 14.7 16.8 16.1102 16.8 17.85Z" fill="#383324"/>
<defs>
<linearGradient id="paint0_linear_21_297" x1="21" y1="0" x2="21" y2="42" gradientUnits="userSpaceOnUse">
<stop stop-color="#C6AE64"/>
<stop offset="1" stop-color="#9C7238"/>
</linearGradient>
</defs>
</svg>
