<svg width="77" height="27" viewBox="0 0 77 27" fill="none" xmlns="http://www.w3.org/2000/svg">
<path d="M8.63643 16.1788C5.55609 16.0742 2.91882 15.0423 1.2053 12.358C-1.29446 8.4421 0.241594 3.31094 4.45031 1.29068C7.88531 -0.35938 12.2091 0.242351 14.8124 2.67513C18.7436 6.35132 17.935 13.5674 11.6968 15.677C10.7096 16.0107 9.69181 16.1941 8.63761 16.1788H8.63643ZM8.71282 14.3078C9.3028 14.336 9.97975 14.2361 10.6402 14.0481C15.534 12.653 16.3249 7.37144 13.8593 4.5285C12.0917 2.48944 9.7682 1.90768 7.16162 2.35559C3.33839 3.01242 1.11481 6.72153 2.37703 10.3002C3.23262 12.7247 5.69464 14.3078 8.71282 14.3078ZM29.6488 7.56888C29.6488 5.46165 29.6676 3.35795 29.6359 1.25424C29.6276 0.723029 29.764 0.562019 30.3093 0.577298C31.6785 0.616081 31.6796 0.587875 31.6796 1.94647C31.6796 6.39363 31.6726 10.8408 31.689 15.2868C31.6914 15.7675 31.622 15.9661 31.0638 15.9496C29.6488 15.905 29.6476 15.9379 29.6476 14.5029V10.7585C29.6476 10.5235 29.6488 10.3084 29.4361 10.1262C26.8693 7.93321 24.3084 5.73196 21.7229 3.51308C21.5372 3.73168 21.6101 3.95145 21.6089 4.14772C21.6042 7.87327 21.596 11.5988 21.6159 15.3232C21.6183 15.8015 21.5019 15.9555 21.006 15.9461C19.5639 15.9191 19.5639 15.9414 19.5639 14.5264C19.5639 10.0992 19.571 5.67202 19.5545 1.24367C19.5522 0.762988 19.6321 0.596102 20.1786 0.56437C21.0119 0.515009 21.6054 0.811173 22.2094 1.34239C24.5552 3.40613 26.9398 5.42757 29.3115 7.46429C29.3808 7.52422 29.4408 7.61589 29.6476 7.56888H29.6488ZM53.8402 3.37558V4.0725C53.8402 7.83802 53.8308 11.6035 53.852 15.369C53.8543 15.8391 53.718 15.9508 53.2643 15.9449C51.8423 15.9238 51.8423 15.9426 51.8423 14.5158C51.8423 10.0675 51.8482 5.61914 51.8329 1.1708C51.8317 0.725379 51.9328 0.599628 52.4041 0.572597C53.2209 0.525587 53.8261 0.767689 54.4455 1.32006C56.6773 3.30741 58.9678 5.23013 61.2408 7.17047C61.4265 7.32913 61.5851 7.5395 61.8507 7.60297C61.9953 7.42198 61.926 7.22101 61.9271 7.03767C61.933 5.08675 61.9495 3.13583 61.9177 1.1849C61.9095 0.681895 62.0682 0.573772 62.5442 0.581999C63.9298 0.609029 63.9298 0.587875 63.9298 1.997C63.9298 6.42536 63.9227 10.8549 63.9392 15.2833C63.9403 15.7604 63.8792 15.9684 63.3151 15.9508C61.9307 15.9061 61.9307 15.9402 61.9307 14.5334C61.9307 13.2853 61.9224 12.036 61.9365 10.7879C61.9401 10.4718 61.8613 10.2414 61.611 10.0287C59.0525 7.84977 56.5045 5.66027 53.8414 3.37793L53.8402 3.37558ZM67.2722 8.21762C67.2722 5.85771 67.2828 3.4978 67.2628 1.13907C67.2593 0.706575 67.3697 0.577298 67.8163 0.580823C70.4184 0.603153 73.0215 0.597277 75.6247 0.584349C75.9914 0.581999 76.1348 0.660741 76.1395 1.06268C76.1524 2.453 76.1689 2.453 74.7821 2.453C73.1579 2.453 71.5337 2.46593 69.9095 2.44478C69.4734 2.4389 69.2842 2.52117 69.3019 3.01477C69.3406 4.10541 69.3301 5.1984 69.3054 6.29021C69.296 6.69332 69.4123 6.82965 69.8295 6.8226C71.2974 6.80027 72.7653 6.8273 74.232 6.80497C74.6328 6.79909 74.7691 6.89781 74.768 7.31973C74.7621 8.6748 74.7809 8.6748 73.4482 8.6748C72.2353 8.6748 71.0213 8.68773 69.8084 8.66775C69.4335 8.66187 69.2995 8.76177 69.3054 9.15548C69.3265 10.6175 69.3336 12.0807 69.303 13.5427C69.2936 14.0069 69.4687 14.0857 69.8813 14.081C71.7793 14.0622 73.6773 14.0857 75.5754 14.0622C76.0126 14.0563 76.1442 14.1726 76.1395 14.6157C76.1266 15.9332 76.1465 15.9332 74.8303 15.9332C72.5009 15.9332 70.1727 15.9191 67.8445 15.9449C67.3721 15.9496 67.2581 15.8098 67.2616 15.3549C67.2828 12.9762 67.2722 10.5963 67.2722 8.21762ZM35.0221 8.20117C35.0221 5.84126 35.0303 3.48018 35.0138 1.12027C35.0115 0.732431 35.089 0.579648 35.5215 0.580823C37.0212 0.581999 37.0212 0.56437 37.0212 2.05694C37.0212 5.86124 37.0306 9.66436 37.0106 13.4675C37.0082 13.9517 37.1316 14.0927 37.6252 14.0845C39.5233 14.0551 41.4225 14.0845 43.3205 14.0633C43.7366 14.0586 43.8482 14.1856 43.8459 14.5922C43.8423 15.932 43.8576 15.932 42.5037 15.932C40.2132 15.932 37.9238 15.9179 35.6332 15.9426C35.156 15.9473 35.0033 15.8391 35.0091 15.3385C35.0362 12.9586 35.0209 10.5787 35.0209 8.19882L35.0221 8.20117ZM76.324 17.7172C76.2547 17.8782 76.2347 17.9499 76.1971 18.0098C75.754 18.7197 75.3086 19.4284 74.8185 20.2099C74.5082 19.4507 74.1498 19.7563 73.7514 20.0501C71.6582 21.5885 69.484 23.0141 67.4191 24.596C65.2155 26.2836 62.4313 26.3447 60.4463 24.8263C58.9103 23.6511 58.2745 21.5756 58.868 19.6764C59.4497 17.8195 61.1562 16.5043 63.0836 16.3892C64.689 16.294 66.1604 16.6089 67.4027 17.6819C67.5484 17.8077 67.9985 17.924 67.633 18.2296C67.3733 18.447 67.2111 18.983 66.6481 18.5505C65.3718 17.5691 63.938 17.1801 62.3502 17.6996C60.7507 18.2226 59.7083 19.7516 59.8575 21.3252C60.0291 23.1422 61.2902 24.4784 63.0295 24.7276C64.3012 24.9098 65.4376 24.5642 66.4718 23.8697C68.7918 22.3124 71.0941 20.7294 73.4082 19.1639C73.6985 18.9677 73.9747 18.8243 73.6809 18.4012C73.4493 18.0686 73.8477 18.1156 73.9653 18.0933C74.7104 17.9546 75.4625 17.85 76.324 17.716V17.7172ZM30.3387 22.8472C31.2448 23.8203 32.1427 24.784 33.0277 25.7336C32.1944 25.8676 31.4093 25.83 30.7676 25.0097C30.2682 24.3703 29.6053 23.8579 29.0236 23.2809C28.8496 23.1081 28.6698 23.0094 28.4113 22.9988C27.1537 22.9483 27.1537 22.94 27.1537 24.1987C27.1537 24.4914 27.1208 24.7875 27.1608 25.0743C27.2395 25.6349 27.0444 25.8218 26.4662 25.7877C26.0431 25.763 25.8986 25.6831 25.9021 25.233C25.9232 22.5252 25.9232 19.8162 25.9021 17.1072C25.8986 16.6465 26.0208 16.4938 26.4897 16.522C27.5803 16.589 28.6839 16.4091 29.764 16.6489C31.0285 16.9298 32.0698 17.5221 32.4941 18.8466C32.9665 20.3227 32.2896 21.8976 30.8981 22.5992C30.7065 22.6956 30.5067 22.7743 30.3398 22.8484L30.3387 22.8472ZM27.1537 19.7516C27.1537 20.3368 27.162 20.9221 27.1502 21.5074C27.1443 21.7765 27.2289 21.9035 27.5169 21.8882C28.1609 21.8541 28.8061 21.9305 29.4502 21.8318C30.6231 21.6508 31.3353 20.9644 31.4035 19.922C31.4681 18.9418 30.8241 18.1356 29.7299 17.8077C29.0189 17.595 28.2914 17.7125 27.5709 17.6702C27.2231 17.649 27.1361 17.7971 27.1479 18.1144C27.1678 18.6598 27.1537 19.2062 27.1537 19.7527V19.7516ZM46.4526 8.26228C46.4526 5.88239 46.4608 3.50133 46.4443 1.12144C46.442 0.731256 46.5207 0.580823 46.9532 0.580823C48.4505 0.583174 48.4505 0.565545 48.4505 2.05812C48.4505 6.46767 48.4435 10.8772 48.4611 15.2868C48.4634 15.7722 48.3835 15.9637 47.8335 15.9484C46.4526 15.9085 46.4514 15.939 46.4514 14.5851V8.26346L46.4526 8.26228ZM33.3896 25.77C34.0008 24.2034 34.586 22.7003 35.1737 21.1983C35.7272 19.7833 36.2843 18.3695 36.8366 16.9545C36.9318 16.7124 37.0118 16.5161 37.3561 16.5173C37.7028 16.5184 37.8344 16.6795 37.9461 16.958C39.0591 19.7445 40.1755 22.5299 41.3038 25.3093C41.4554 25.6831 41.3637 25.7454 40.9806 25.7853C40.3542 25.8488 40.0204 25.6361 39.8441 25.0273C39.6878 24.4878 39.4128 23.9848 39.2177 23.4548C39.1166 23.1821 38.9862 23.047 38.6712 23.054C37.8297 23.074 36.9883 23.074 36.1468 23.054C35.8306 23.0458 35.7049 23.181 35.6073 23.4571C35.4122 24.0072 35.1384 24.5325 34.975 25.0896C34.8176 25.6255 34.5449 25.8735 33.9773 25.7736C33.8104 25.7442 33.6329 25.7689 33.3896 25.7689V25.77ZM36.1832 21.9176C36.9412 21.9176 37.6194 21.914 38.2975 21.9187C38.5643 21.9211 38.5878 21.8 38.5008 21.5873C38.1518 20.7282 37.8086 19.8667 37.4031 18.8596C36.9706 19.9431 36.5922 20.8892 36.182 21.9164L36.1832 21.9176ZM49.4119 21.1278C49.4119 19.7621 49.4224 18.3965 49.4048 17.0309C49.4001 16.6642 49.4847 16.5149 49.8914 16.522C51.3393 16.5455 52.7895 16.5537 54.2363 16.5196C54.7416 16.5079 54.7522 16.7488 54.751 17.1213C54.751 17.4798 54.724 17.7008 54.2574 17.6855C53.2209 17.6514 52.1819 17.689 51.1454 17.6667C50.7681 17.6584 50.6236 17.7642 50.6447 18.1556C50.6753 18.7197 50.6682 19.2873 50.6459 19.8526C50.633 20.1864 50.7528 20.2922 51.0831 20.284C51.8858 20.2652 52.6896 20.3028 53.49 20.2699C54.0224 20.2475 53.9037 20.5919 53.9201 20.8869C53.9366 21.2054 53.9307 21.4545 53.4735 21.431C52.7707 21.3946 52.0597 21.471 51.3616 21.4063C50.7305 21.3487 50.6141 21.592 50.6388 22.1561C50.6835 23.1492 50.6188 24.147 50.6647 25.1401C50.6882 25.6643 50.5295 25.7959 50.0148 25.7888C49.5306 25.7818 49.3848 25.656 49.3978 25.166C49.4318 23.8203 49.4095 22.4746 49.4095 21.1278H49.4119ZM20.5794 16.5314C21.7922 16.5314 23.0063 16.5513 24.2191 16.5208C24.6751 16.509 24.6786 16.7488 24.6634 17.0661C24.6493 17.3623 24.7633 17.7031 24.2321 17.6819C23.3718 17.649 22.5091 17.6937 21.65 17.6643C21.2281 17.6502 21.127 17.8018 21.1294 18.2002C21.1458 20.5214 21.1235 22.8413 21.1482 25.1624C21.1541 25.6466 21.0236 25.783 20.5347 25.7877C20.027 25.7924 19.8742 25.6713 19.8813 25.1436C19.913 22.8425 19.8813 20.5413 19.9071 18.2402C19.913 17.7642 19.7626 17.6443 19.3113 17.6643C18.5297 17.6984 17.7458 17.6526 16.9631 17.6819C16.5271 17.6984 16.3367 17.6079 16.352 17.1143C16.3661 16.6712 16.4566 16.5055 16.9396 16.5196C18.1513 16.5561 19.3653 16.5314 20.5794 16.5314ZM42.5578 21.1595C42.5578 19.7951 42.5695 18.4306 42.5507 17.0661C42.5449 16.6853 42.6142 16.5137 43.0537 16.522C44.5005 16.549 45.9484 16.5525 47.3951 16.522C47.897 16.5114 47.8488 16.7864 47.8535 17.1096C47.8582 17.4457 47.877 17.7043 47.3857 17.6878C46.3303 17.6514 45.2738 17.6878 44.2172 17.6702C43.8658 17.6643 43.7283 17.763 43.7448 18.1297C43.7718 18.7138 43.7648 19.2991 43.7471 19.8832C43.7377 20.1911 43.8541 20.291 44.155 20.2851C44.9565 20.271 45.7603 20.3098 46.5595 20.2699C47.0484 20.2452 47.0367 20.5073 47.0296 20.8457C47.0226 21.1666 47.079 21.4616 46.5725 21.4334C45.8508 21.3934 45.1222 21.4639 44.4029 21.4099C43.8341 21.3675 43.7225 21.5873 43.7401 22.0997C43.7765 23.1704 43.7213 24.2446 43.7624 25.3152C43.7836 25.8805 43.4357 25.7571 43.1196 25.7736C42.7834 25.7912 42.5308 25.8018 42.5437 25.3117C42.5778 23.9284 42.5554 22.544 42.5554 21.1607L42.5578 21.1595ZM57.4459 21.1936C57.4459 22.5369 57.42 23.8826 57.4588 25.2247C57.4729 25.7348 57.2567 25.7971 56.8418 25.7771C56.4798 25.7595 56.1837 25.83 56.1896 25.2612C56.2225 22.5158 56.2213 19.7692 56.1907 17.0226C56.1837 16.4326 56.5245 16.5514 56.8641 16.5267C57.2567 16.4973 57.4694 16.5584 57.4577 17.045C57.4247 18.4271 57.4459 19.8103 57.4459 21.1936Z" fill="white" fill-opacity="0.6"/>
<path d="M74.3989 20.0795C74.3989 22.1762 74.3966 24.1424 74.4013 26.1074C74.4013 26.3413 74.3378 26.4435 74.0758 26.4694C72.7959 26.5928 72.7971 26.6022 72.7971 25.3564C72.7971 24.1671 72.8182 22.9777 72.7865 21.7884C72.7736 21.3241 72.9017 21.0174 73.3189 20.7953C73.6585 20.6143 73.9641 20.371 74.3989 20.0784V20.0795ZM72.3775 21.5063V26.2367C72.3775 26.4083 72.3434 26.5575 72.1331 26.5611C71.7617 26.5669 71.3891 26.5705 71.0177 26.5587C70.7709 26.5505 70.7686 26.3613 70.7686 26.1768C70.7686 25.1038 70.7756 24.0307 70.7639 22.9577C70.7615 22.7109 70.8626 22.5511 71.0495 22.4218C71.4502 22.1445 71.8522 21.8695 72.3775 21.5075V21.5063ZM70.3819 23.0553C70.3819 24.1001 70.3737 25.132 70.3866 26.165C70.3902 26.4753 70.2656 26.5575 69.9706 26.5728C68.773 26.6339 68.8717 26.6328 68.746 25.4892C68.6179 24.3257 69.0445 23.6065 70.054 23.1376C70.1375 23.0988 70.1974 23.0012 70.3819 23.0553ZM68.2876 24.3916V25.4869C68.2876 26.6304 68.1348 26.7538 66.9713 26.5669C66.8244 26.5434 66.6775 26.5211 66.6858 26.346C66.701 26.044 66.5377 25.682 66.8115 25.4552C67.2393 25.0991 67.7153 24.7994 68.2876 24.3916Z" fill="white" fill-opacity="0.6"/>
</svg>
