<svg width="110" height="18" viewBox="0 0 110 18" fill="none" xmlns="http://www.w3.org/2000/svg">
<path d="M6.5092 16.8713H0.567871V0.797607H6.50121C8.13901 0.797607 9.54921 1.11943 10.7316 1.76308C11.9194 2.4014 12.835 3.32221 13.4787 4.52571C14.1221 5.72389 14.444 7.15745 14.444 8.82659C14.444 10.501 14.1221 11.9399 13.4787 13.1432C12.8402 14.3467 11.9271 15.2702 10.7394 15.9139C9.55167 16.5522 8.14167 16.8713 6.5092 16.8713ZM4.45289 13.5593H6.36007C7.25999 13.5593 8.02122 13.4077 8.64397 13.1041C9.27184 12.7954 9.74526 12.2958 10.0644 11.605C10.3889 10.9091 10.5511 9.98298 10.5511 8.82659C10.5511 7.6704 10.3889 6.74938 10.0644 6.06395C9.74013 5.37339 9.26139 4.87622 8.6282 4.57262C8.00032 4.26412 7.22598 4.10966 6.30517 4.10966H4.45289V13.5593ZM19.976 16.8713H15.8007L21.224 0.797607H26.3961L31.8193 16.8713H27.644L23.869 4.84754H23.7434L19.976 16.8713ZM19.4188 10.5455H28.1463V13.4964H19.4188V10.5455ZM31.7536 3.95274V0.797607H45.3394V3.95274H40.4653V16.8713H36.6354V3.95274H31.7536ZM49.443 16.8713H45.2677L50.6909 0.797607H55.863L61.2863 16.8713H57.111L53.3358 4.84754H53.2102L49.443 16.8713ZM48.8858 10.5455H57.6133V13.4964H48.8858V10.5455ZM77.4334 0.797607V16.8713H74.1371L67.7406 7.5944H67.6386V16.8713H63.7535V0.797607H67.0972L73.423 10.059H73.5563V0.797607H77.4334ZM80.6131 16.8713V0.797607H91.8206V3.95274H84.4979V7.24923H91.2476V10.4121H84.4979V13.7164H91.8206V16.8713H80.6131ZM98.9224 0.797607L101.858 5.87569H101.983L104.95 0.797607H109.298L104.448 8.83458L109.455 16.8713H104.997L101.983 11.7384H101.858L98.8439 16.8713H94.4175L99.4011 8.83458L94.5431 0.797607H98.9224Z" fill="white" fill-opacity="0.6"/>
<mask id="mask0_7_60" style="mask-type:luminance" maskUnits="userSpaceOnUse" x="0" y="0" width="110" height="18">
<path d="M0.170654 0.483215H109.971V17.2811H0.170654V0.483215Z" fill="white"/>
<path d="M6.5092 16.8713H0.567871V0.797607H6.50121C8.13901 0.797607 9.54921 1.11943 10.7316 1.76308C11.9194 2.4014 12.835 3.32221 13.4787 4.52571C14.1221 5.72389 14.444 7.15745 14.444 8.82659C14.444 10.501 14.1221 11.9399 13.4787 13.1432C12.8402 14.3467 11.9271 15.2702 10.7394 15.9139C9.55167 16.5522 8.14167 16.8713 6.5092 16.8713ZM4.45289 13.5593H6.36007C7.25999 13.5593 8.02122 13.4077 8.64397 13.1041C9.27184 12.7954 9.74526 12.2958 10.0644 11.605C10.3889 10.9091 10.5511 9.98298 10.5511 8.82659C10.5511 7.6704 10.3889 6.74938 10.0644 6.06395C9.74013 5.37339 9.26139 4.87622 8.6282 4.57262C8.00032 4.26412 7.22598 4.10966 6.30517 4.10966H4.45289V13.5593ZM19.976 16.8713H15.8007L21.224 0.797607H26.3961L31.8193 16.8713H27.644L23.869 4.84754H23.7434L19.976 16.8713ZM19.4188 10.5455H28.1463V13.4964H19.4188V10.5455ZM31.7536 3.95274V0.797607H45.3394V3.95274H40.4653V16.8713H36.6354V3.95274H31.7536ZM49.443 16.8713H45.2677L50.6909 0.797607H55.863L61.2863 16.8713H57.111L53.3358 4.84754H53.2102L49.443 16.8713ZM48.8858 10.5455H57.6133V13.4964H48.8858V10.5455ZM77.4334 0.797607V16.8713H74.1371L67.7406 7.5944H67.6386V16.8713H63.7535V0.797607H67.0972L73.423 10.059H73.5563V0.797607H77.4334ZM80.6131 16.8713V0.797607H91.8206V3.95274H84.4979V7.24923H91.2476V10.4121H84.4979V13.7164H91.8206V16.8713H80.6131ZM98.9224 0.797607L101.858 5.87569H101.983L104.95 0.797607H109.298L104.448 8.83458L109.455 16.8713H104.997L101.983 11.7384H101.858L98.8439 16.8713H94.4175L99.4011 8.83458L94.5431 0.797607H98.9224Z" fill="black"/>
</mask>
<g mask="url(#mask0_7_60)">
<path d="M0.567518 16.8713H0.321899V17.117H0.567518V16.8713ZM0.567518 0.797598V0.552185H0.321899V0.797598H0.567518ZM10.7313 1.76307L10.6139 1.97878L10.6151 1.97939L10.7313 1.76307ZM13.4783 4.52571L13.2616 4.64145L13.2618 4.64186L13.4783 4.52571ZM13.4783 13.1432L13.2616 13.0275L13.2614 13.0283L13.4783 13.1432ZM10.739 15.9139L10.8554 16.1302L10.856 16.1298L10.739 15.9139ZM4.45254 13.5593H4.20692V13.8049H4.45254V13.5593ZM8.64361 13.1041L8.75116 13.3247L8.75198 13.3245L8.64361 13.1041ZM10.0641 11.605L9.84159 11.5013L9.84118 11.502L10.0641 11.605ZM10.0641 6.06394L9.8418 6.16842L9.8422 6.16903L10.0641 6.06394ZM8.62784 4.57262L8.51947 4.79324L8.52173 4.79427L8.62784 4.57262ZM4.45254 4.10965V3.86424H4.20692V4.10965H4.45254ZM6.50885 16.6257H0.567518V17.117H6.50885V16.6257ZM0.813137 16.8713V0.797598H0.321899V16.8713H0.813137ZM0.567518 1.04322H6.50086V0.552185H0.567518V1.04322ZM6.50086 1.04322C8.10649 1.04322 9.47449 1.35869 10.6139 1.97878L10.8486 1.54736C9.62321 0.880359 8.17082 0.552185 6.50086 0.552185V1.04322ZM10.6151 1.97939C11.7596 2.59456 12.6407 3.48014 13.2616 4.64145L13.6949 4.40996C13.0287 3.16446 12.0784 2.20821 10.8476 1.54674L10.6151 1.97939ZM13.2618 4.64186C13.8823 5.79722 14.198 7.18899 14.198 8.82658H14.6892C14.6892 7.1261 14.3612 5.65055 13.6947 4.40955L13.2618 4.64186ZM14.198 8.82658C14.198 10.4695 13.8823 11.8668 13.2616 13.0275L13.6949 13.259C14.3612 12.0129 14.6892 10.5324 14.6892 8.82658H14.198ZM13.2614 13.0281C12.6454 14.1894 11.767 15.0776 10.6221 15.6979L10.856 16.1298C12.0868 15.463 13.0344 14.5041 13.6953 13.2584L13.2614 13.0283V13.0281ZM10.6229 15.6975C9.47757 16.3129 8.10916 16.6257 6.50885 16.6257V17.117C8.17327 17.117 9.62506 16.7912 10.8554 16.1302L10.6229 15.6975ZM4.45254 13.8047H6.35971V13.3137H4.45254V13.8049V13.8047ZM6.35971 13.8047C7.28626 13.8047 8.08662 13.6488 8.75116 13.3247L8.53607 12.8833C7.95531 13.1664 7.233 13.3137 6.35971 13.3137V13.8049V13.8047ZM8.75198 13.3245C9.43475 12.9886 9.94647 12.4451 10.2871 11.708L9.84118 11.502C9.54353 12.1464 9.10801 12.602 8.53525 12.8837L8.75198 13.3245ZM10.2867 11.7089C10.6319 10.9681 10.7964 10.0024 10.7964 8.82658H10.3052C10.3052 9.96351 10.1452 10.8501 9.84159 11.5013L10.2867 11.7089ZM10.7964 8.82658C10.7964 7.65134 10.6321 6.68997 10.2861 5.95885L9.8422 6.16903C10.145 6.80899 10.3052 7.68945 10.3052 8.82658H10.7964ZM10.2865 5.95967C9.94012 5.22241 9.42267 4.68139 8.73395 4.35138L8.52173 4.79427C9.0992 5.07102 9.53923 5.52416 9.8418 6.16842L10.2865 5.95967ZM8.73621 4.3524C8.06573 4.02259 7.25185 3.86424 6.30482 3.86424V4.35527C7.19941 4.35527 7.93421 4.50542 8.51947 4.79324L8.73621 4.3524ZM6.30482 3.86424H4.45254V4.35527H6.30482V3.86424ZM4.20692 4.10965V13.5593H4.69816V4.10965H4.20692ZM19.9756 16.8713V17.117H20.1561L20.21 16.9447L19.9756 16.8713ZM15.8003 16.8713L15.5676 16.7929L15.4582 17.117H15.8003V16.8713ZM21.2236 0.797598V0.552185H21.0472L20.9909 0.71914L21.2236 0.797598ZM26.3957 0.797598L26.6284 0.71914L26.5721 0.552185H26.3957V0.797598ZM31.819 16.8713V17.117H32.1611L32.0517 16.7929L31.819 16.8713ZM27.6437 16.8713L27.4093 16.9449L27.4634 17.117H27.6437V16.8713ZM23.8686 4.84753L24.1028 4.77378L24.0489 4.60191H23.8686V4.84753ZM23.7431 4.84753V4.60171H23.5626L23.5087 4.77378L23.7431 4.84753ZM19.4184 10.5455V10.2999H19.1728V10.5455H19.4184ZM28.146 10.5455H28.3916V10.2999H28.146V10.5455ZM28.146 13.4964V13.7422H28.3916V13.4964H28.146ZM19.4184 13.4964H19.1728V13.7422H19.4184V13.4964ZM19.9756 16.6257H15.8003V17.117H19.9756V16.6257ZM16.033 16.9498L21.4563 0.876262L20.9909 0.71914L15.5676 16.7929L16.033 16.9498ZM21.2236 1.04322H26.3957V0.552185H21.2236V1.04322ZM26.163 0.876262L31.5864 16.9498L32.0517 16.7929L26.6284 0.71914L26.163 0.876262ZM31.819 16.6257H27.6437V17.117H31.819V16.6257ZM27.878 16.7978L24.1028 4.77378L23.6343 4.92107L27.4093 16.9449L27.878 16.7978ZM23.8686 4.60191L23.7431 4.60171V5.09294H23.8686V4.60191ZM23.5087 4.77378L19.7413 16.798L20.21 16.9447L23.9772 4.92087L23.5087 4.77378ZM19.4184 10.7911H28.146V10.2999H19.4184V10.7911ZM27.9003 10.5453V13.4964H28.3916V10.5455L27.9003 10.5453ZM28.146 13.251H19.4184V13.742H28.146V13.251ZM19.6641 13.4964V10.5455H19.1728V13.4964H19.6641ZM31.7532 3.95273H31.5076V4.19835H31.7532V3.95273ZM31.7532 0.797598V0.552185H31.5076V0.797598H31.7532ZM45.339 0.797598H45.5844V0.552185H45.339V0.797598ZM45.339 3.95273V4.19835H45.5844V3.95273H45.339ZM40.465 3.95273V3.70712H40.2195V3.95294H40.465V3.95273ZM40.465 16.8713V17.117H40.7106V16.8713H40.465ZM36.635 16.8713H36.3894V17.117H36.635V16.8713ZM36.635 3.95273H36.8805V3.70712H36.635V3.95294V3.95273ZM31.9988 3.95273V0.797598H31.5076V3.95273H31.9988ZM31.7532 1.04342H45.339V0.552185H31.7532V1.04342ZM45.0934 0.797803V3.95294H45.5844V0.797598L45.0934 0.797803ZM45.339 3.70732L40.465 3.70712V4.19856L45.339 4.19835V3.70732ZM40.2195 3.95294V16.8715H40.7106V3.95273H40.2195V3.95294ZM40.465 16.6259H36.635V17.1172H40.465V16.6259ZM36.8805 16.8715V3.95273H36.3894V16.8713H36.8805V16.8715ZM36.635 3.70712L31.7532 3.70732V4.19835L36.635 4.19856V3.70712ZM49.4426 16.8715V17.1172H49.6231L49.677 16.9449L49.4426 16.8715ZM45.2673 16.8715L45.0346 16.7931L44.9252 17.1172H45.2673V16.8715ZM50.6906 0.797803V0.55239H50.5142L50.4579 0.719345L50.6906 0.797803ZM55.8627 0.797803L56.0954 0.719345L56.039 0.55239H55.8627V0.797803ZM61.2859 16.8715V17.1172H61.628L61.5186 16.7931L61.2859 16.8715ZM57.1106 16.8715L56.8763 16.9451L56.9304 17.1172H57.1106V16.8715ZM53.3354 4.84753L53.5698 4.77378L53.5157 4.60191H53.3354V4.84753ZM53.2098 4.84753V4.60171H53.0296L52.9755 4.77378L53.2098 4.84753ZM48.8854 10.5455V10.2999H48.6398V10.5455H48.8854ZM57.6129 10.5455H57.8583V10.2999H57.6129V10.5455ZM57.6129 13.4964V13.7422H57.8583V13.4964H57.6129ZM48.8854 13.4964H48.6398V13.7422H48.8854V13.4964ZM49.4426 16.6257H45.2673V17.117H49.4426V16.6257ZM45.5 16.9498L50.9233 0.876262L50.4579 0.719345L45.0346 16.7929L45.5 16.9498ZM50.6906 1.04322H55.8627V0.55239H50.6906V1.04322ZM55.63 0.876262L61.0532 16.9498L61.5186 16.7929L56.0954 0.719345L55.63 0.876262ZM61.2859 16.6257H57.1106V17.117H61.2859V16.6257ZM57.3448 16.7978L53.5698 4.77378L53.1013 4.92107L56.8763 16.9451L57.3448 16.7978ZM53.3354 4.60191L53.2098 4.60171V5.09294H53.3354V4.60191ZM52.9755 4.77378L49.2083 16.798L49.677 16.9447L53.4442 4.92087L52.9755 4.77378ZM48.8854 10.7911H57.6129V10.2999H48.8854V10.7911ZM57.3673 10.5453V13.4964H57.8583V10.5455L57.3673 10.5453ZM57.6129 13.251H48.8854V13.742H57.6129V13.251ZM49.131 13.4964V10.5455H48.6398V13.4964H49.131ZM77.433 0.797598H77.6786V0.552185H77.433V0.797598ZM77.433 16.8713V17.117H77.6786V16.8713H77.433ZM74.1367 16.8713L73.9345 17.0106L74.0079 17.117H74.1367V16.8713ZM67.7402 7.59439L67.9424 7.45509L67.8693 7.34878H67.7402V7.59439ZM67.6382 7.59439V7.34878H67.3926V7.5946L67.6382 7.59439ZM67.6382 16.8713V17.117H67.8838V16.8713H67.6382ZM63.7532 16.8713H63.5078V17.117H63.7532V16.8713ZM63.7532 0.797598V0.552185H63.5078V0.797598H63.7532ZM67.0968 0.797598L67.2994 0.659118L67.2262 0.552185H67.0968V0.797598ZM73.4226 10.059L73.2198 10.1975L73.2929 10.3044H73.4226V10.059ZM73.556 10.059V10.3044H73.8016V10.059H73.556ZM73.556 0.797598V0.552185H73.3103V0.797598H73.556ZM77.1876 0.797598V16.8713H77.6786V0.797598H77.1876ZM77.433 16.6257H74.1367V17.117H77.433V16.6257ZM74.3389 16.7318L67.9424 7.45509L67.538 7.73369L73.9345 17.0106L74.3389 16.7318ZM67.7402 7.34878H67.6382V7.84001H67.7402V7.34878ZM67.3926 7.5946V16.8713H67.8838V7.59439L67.3926 7.5946ZM67.6382 16.6257H63.7532V17.117H67.6382V16.6257ZM63.9988 16.8713V0.797598H63.5078V16.8713H63.9988ZM63.7532 1.04322H67.0968V0.552185H63.7532V1.04322ZM66.894 0.936078L73.2198 10.1975L73.6254 9.92029L67.2994 0.659118L66.894 0.936078ZM73.4226 10.3044H73.556V9.81335H73.4226V10.3044ZM73.8016 10.059V0.797598H73.3103V10.059H73.8016ZM73.556 1.04322H77.433V0.552185H73.556V1.04322ZM80.6127 16.8713H80.3671V17.117H80.6127V16.8713ZM80.6127 0.797598V0.552185H80.3671V0.797598H80.6127ZM91.8202 0.797598H92.0658V0.552185H91.8202V0.797598ZM91.8202 3.95273V4.19835H92.0658V3.95273H91.8202ZM84.4975 3.95273V3.70712H84.2521V3.95294H84.4975V3.95273ZM84.4975 7.24922H84.2521V7.49463H84.4975V7.24922ZM91.2472 7.24922H91.4928V7.00339H91.2472V7.24922ZM91.2472 10.4121V10.6575H91.4928V10.4119L91.2472 10.4121ZM84.4975 10.4121V10.1663H84.2521V10.4121H84.4975ZM84.4975 13.7164H84.2521V13.9618H84.4975V13.7164ZM91.8202 13.7164H92.0658V13.4706H91.8202V13.7164ZM91.8202 16.8713V17.117H92.0658V16.8713H91.8202ZM80.8581 16.8713V0.797598H80.3671V16.8713H80.8581ZM80.6127 1.04322H91.8202V0.552185H80.6127V1.04322ZM91.5746 0.797598V3.95273H92.0658V0.797598H91.5746ZM91.8202 3.70712H84.4975V4.19835H91.8202V3.70712ZM84.2521 3.95294V7.24922L84.7431 7.24901V3.95294H84.2521ZM84.4975 7.49463L91.2472 7.49484V7.00339L84.4975 7.0036V7.49463ZM91.0018 7.24901V10.4119H91.4928V7.24922L91.0018 7.24901ZM91.2472 10.1665L84.4975 10.1663V10.6575H91.2472V10.1665ZM84.2521 10.4121V13.7164L84.7431 13.7162V10.4119L84.2521 10.4121ZM84.4975 13.9618H91.8202V13.4706H84.4975V13.9618ZM91.5746 13.7162V16.8713H92.0658V13.7164L91.5746 13.7162ZM91.8202 16.6257H80.6127V17.117H91.8202V16.6257ZM98.922 0.797598L99.1346 0.674687L99.0638 0.552185H98.922V0.797598ZM101.857 5.87568L101.645 5.99859L101.716 6.1213H101.857V5.87568ZM101.983 5.87568V6.1213H102.124L102.195 5.99941L101.983 5.87568ZM104.95 0.797598V0.552185H104.809L104.738 0.673867L104.95 0.797598ZM109.298 0.797598L109.508 0.924607L109.733 0.552185H109.298V0.797598ZM104.447 8.83457L104.237 8.70756L104.159 8.83662L104.239 8.96445L104.447 8.83457ZM109.455 16.8713V17.117H109.897L109.663 16.7415L109.455 16.8713ZM104.997 16.8713L104.785 16.9957L104.856 17.117H104.997V16.8713ZM101.983 11.7383L102.195 11.614L102.123 11.4929H101.983V11.7383ZM101.857 11.7383V11.4929H101.717L101.646 11.614L101.857 11.7383ZM98.8436 16.8713V17.117H98.9841L99.0554 16.9957L98.8436 16.8713ZM94.4171 16.8713L94.2084 16.7419L93.9758 17.117H94.4171V16.8713ZM99.4007 8.83457L99.6095 8.96383L99.6888 8.83621L99.6109 8.70736L99.4007 8.83436V8.83457ZM94.5427 0.797598V0.552185H94.1072L94.3325 0.924811L94.5427 0.797598ZM98.7094 0.92051L101.645 5.99859L102.07 5.75298L99.1346 0.674892L98.7094 0.92051ZM101.857 6.1213H101.983V5.63006H101.857V6.1213ZM102.195 5.99941L105.162 0.921534L104.738 0.673867L101.771 5.75175L102.195 5.99941ZM104.95 1.04322H109.298V0.552185H104.95V1.04322ZM109.087 0.670795L104.237 8.70756L104.658 8.96137L109.508 0.924607L109.087 0.67059V0.670795ZM104.239 8.96445L109.246 17.0012L109.663 16.7415L104.656 8.70469L104.239 8.96445ZM109.455 16.6257H104.997V17.117H109.455V16.6257ZM105.209 16.747L102.195 11.614L101.771 11.8627L104.785 16.9957L105.209 16.747ZM101.983 11.4929H101.857V11.984H101.983V11.4929ZM101.646 11.614L98.6317 16.747L99.0554 16.9957L102.069 11.8627L101.646 11.614ZM98.8436 16.6257H94.4171V17.117H98.8436V16.6257ZM94.6256 17.0008L99.6095 8.96383L99.1922 8.7051L94.2084 16.7419L94.6256 17.0008ZM99.6109 8.70736L94.7528 0.67059L94.3325 0.924811L99.1906 8.96158L99.6109 8.70736ZM94.5427 1.04342H98.922V0.552185H94.5427V1.04342Z" fill="white" fill-opacity="0.6"/>
</g>
</svg>
