<svg width="52" height="28" viewBox="0 0 52 28" fill="none" xmlns="http://www.w3.org/2000/svg">
<path d="M31.5929 0.992065C31.4951 0.419149 30.9987 0 30.417 0H3.59825C2.82535 0 2.19952 0.62654 2.19952 1.39801C2.19952 2.1709 2.82535 2.79673 3.59825 2.79673H10.125C10.8979 2.79673 11.5237 3.42338 11.5237 4.19556C11.5237 4.96774 10.8979 5.59428 10.125 5.59428H1.3986C0.626419 5.59428 -0.00012207 6.22082 -0.00012207 6.993C-0.00012207 7.76518 0.626419 8.39091 1.3986 8.39091H13.293C13.9755 8.39091 14.5292 8.94544 14.5292 9.62795C14.5292 10.3104 13.9755 10.8642 13.293 10.8642H6.97369C6.20079 10.8642 5.57496 11.4908 5.57496 12.263C5.57496 13.0351 6.20079 13.6617 6.97369 13.6617H11.6311C12.3142 13.6617 12.868 14.2154 12.868 14.8979C12.868 15.5803 12.3142 16.1342 11.6311 16.1342H5.20142C4.42852 16.1342 3.80269 16.7607 3.80269 17.5329C3.80269 18.3051 4.42852 18.9316 5.20142 18.9316H14.0388L14.5962 22.0843H17.7974C17.6091 22.5417 17.5018 23.0411 17.5018 23.5669C17.5018 25.7246 19.2505 27.4734 21.4083 27.4734C23.5652 27.4734 25.314 25.7246 25.314 23.5669C25.314 23.0411 25.2066 22.5417 25.0183 22.0843H35.1787L31.5929 0.992065ZM23.0894 23.5668C23.0894 24.4957 22.3371 25.248 21.4082 25.248C20.4787 25.248 19.7263 24.4957 19.7263 23.5668C19.7263 22.9205 20.0947 22.3659 20.6294 22.0842H22.1863C22.7209 22.3659 23.0894 22.9204 23.0894 23.5668Z" fill="url(#paint0_linear_15_238)"/>
<path d="M51.9591 19.6346L50.3546 11.7187L44.4955 2.7041H33.8278L37.132 22.0842H41.034C40.8466 22.5416 40.7391 23.041 40.7391 23.5668C40.7391 25.7245 42.4879 27.4733 44.6448 27.4733C46.8026 27.4733 48.5513 25.7245 48.5513 23.5668C48.5513 23.041 48.444 22.5416 48.2558 22.0842H49.956C50.5694 22.0842 51.1503 21.8092 51.5386 21.3341C51.9261 20.8599 52.0812 20.2355 51.9591 19.6346ZM39.8662 6.3106H42.5387L46.0083 11.6474H40.7766L39.8662 6.3106ZM46.3267 23.5668C46.3267 24.4957 45.5744 25.248 44.6448 25.248C43.7167 25.248 42.9637 24.4957 42.9637 23.5668C42.9637 22.9205 43.3329 22.3659 43.8668 22.0842H45.4237C45.9583 22.3659 46.3267 22.9204 46.3267 23.5668Z" fill="url(#paint1_linear_15_238)"/>
<defs>
<linearGradient id="paint0_linear_15_238" x1="17.5893" y1="0" x2="17.5893" y2="27.4734" gradientUnits="userSpaceOnUse">
<stop stop-color="#C6AE64"/>
<stop offset="1" stop-color="#9C7238"/>
</linearGradient>
<linearGradient id="paint1_linear_15_238" x1="42.9139" y1="2.7041" x2="42.9139" y2="27.4733" gradientUnits="userSpaceOnUse">
<stop stop-color="#C6AE64"/>
<stop offset="1" stop-color="#9C7238"/>
</linearGradient>
</defs>
</svg>
