<svg width="143" height="27" viewBox="0 0 143 27" fill="none" xmlns="http://www.w3.org/2000/svg">
<path d="M81.5757 13.5001V26.638H142.696V0.362H141.925C141.296 0.390686 139.925 1.56172 135.127 6.1885L129.129 12.015L126.473 9.47298C123.846 6.98811 123.76 6.93116 122.36 6.93116H120.961L124.303 10.1298L127.616 13.3573L124.074 16.8417L120.561 20.3546H121.846C123.103 20.3546 123.217 20.269 125.845 17.6413C127.33 16.156 128.672 14.928 128.844 14.928C129.015 14.928 130.357 16.1562 131.843 17.6413L134.556 20.3546H137.469L134.013 16.9845C132.128 15.1565 130.5 13.5857 130.415 13.5286C130.243 13.4145 140.754 3.24678 141.068 3.21809C141.182 3.21809 141.239 8.13067 141.211 14.1284L141.125 25.0671H83.1464V2.21853L109.851 2.07574L136.555 1.93295L137.355 1.33308C137.783 0.990335 138.126 0.619114 138.126 0.53348C138.126 0.447846 125.416 0.362 109.851 0.362H81.5757V13.5001ZM3.57622 7.73076C2.46234 8.30194 1.80532 8.90159 1.1772 9.93004C0.405642 11.158 0.320221 11.5575 0.320221 13.4714C0.320221 15.8704 0.891397 17.2986 2.3765 18.6981C3.86181 20.126 4.89005 20.3546 9.74526 20.3546H14.1725V18.0697H10.0024C5.23259 18.0697 4.29019 17.8126 3.26216 16.1276C2.40518 14.7568 2.3765 12.4147 3.20479 11.3008C4.5473 9.50145 4.97569 9.35865 9.77394 9.27302L14.1723 9.18739V6.93095H9.63115C5.23259 6.93095 5.06132 6.95963 3.57622 7.73076ZM15.3146 7.10243C15.3146 7.18806 16.8569 9.07307 18.7421 11.2723L22.1692 15.2993V20.3546H24.4541V15.4418L27.253 12.1574C28.7668 10.3295 30.3947 8.41605 30.8231 7.90182L31.6229 6.93073L30.1091 6.95942H28.5953L26.082 9.95831C24.7112 11.5862 23.483 12.9285 23.3687 12.9C23.2546 12.9 22.0835 11.5577 20.7412 9.92983L18.3135 6.95921L16.8282 6.93095C16.0001 6.93095 15.3146 7.01679 15.3146 7.10243ZM33.0224 13.6429V20.3546H38.8202C45.332 20.3546 46.0746 20.1834 47.0742 18.3268C47.9025 16.7559 47.7597 15.328 46.6458 14.2141L45.6747 13.243L46.3602 12.7288C47.217 12.1006 47.5312 10.1869 47.017 8.9018C46.3031 7.21675 45.1035 6.93116 38.6774 6.93116H33.0224V13.6429ZM44.618 9.90136C45.132 10.6153 45.132 11.2437 44.618 11.9578C44.2466 12.4434 43.7897 12.5003 40.5909 12.5862L36.9921 12.7003L37.078 13.5857L37.1636 14.4997L40.7908 14.5853C44.5324 14.6711 44.7608 14.7281 45.132 15.9848C45.2748 16.4703 45.1607 16.8131 44.618 17.3558C43.904 18.0412 43.8182 18.0697 39.7341 18.0697H35.5927V9.18739L39.9054 9.27302C43.761 9.35865 44.2466 9.41582 44.618 9.90136ZM49.5875 13.6429V20.3546H61.5831V18.0697H51.8724V9.21586H61.5831V6.93095H49.5875V13.6429ZM63.5824 13.6429V20.3546H66.1529V9.18739L70.4654 9.27302C74.6068 9.35865 74.8068 9.38734 75.3208 10.0444C76.0348 10.9296 76.0348 12.9289 75.3208 13.8142C74.8068 14.4425 74.5497 14.4997 71.3224 14.5855L67.8664 14.6996V16.6418H70.3798L72.8646 16.6703L74.4354 18.4981L76.0063 20.2975L77.7198 20.3262L79.4049 20.3546L77.4629 18.384L75.5208 16.4418L76.406 15.8135C77.6627 14.928 78.1482 13.7857 78.1482 11.872C78.1482 9.78725 77.4629 8.44473 75.9776 7.58797C74.9209 6.98811 74.521 6.93116 69.2374 6.93116H63.5824V13.6429Z" fill="white" fill-opacity="0.6"/>
</svg>
