<svg width="103" height="27" viewBox="0 0 103 27" fill="none" xmlns="http://www.w3.org/2000/svg">
<path d="M23.0195 22.0279L27.3635 0.362H37.0132C39.9298 0.362 42.1743 0.991331 43.7464 2.24999C45.3392 3.50866 46.1355 5.27296 46.1355 7.54274C46.1355 9.3585 45.6804 10.9577 44.7703 12.3401C43.8808 13.7226 42.6086 14.7956 40.9538 15.5591C39.3196 16.3225 37.3855 16.7043 35.1515 16.7043H28.1391L32.0487 13.5163L30.3421 22.0279H23.0195ZM31.8626 14.3829L29.2873 11.0712H35.5238C36.5374 11.0712 37.3235 10.8235 37.882 10.3282C38.4405 9.81252 38.7197 9.10056 38.7197 8.19268C38.7197 7.4085 38.4716 6.8514 37.9751 6.52123C37.4993 6.17045 36.8373 5.99514 35.9893 5.99514H30.3111L34.2207 2.59039L31.8626 14.3829ZM46.0858 22.0279L50.4297 0.362H60.2346C62.5307 0.362 64.5062 0.733399 66.161 1.4762C67.8159 2.21899 69.088 3.28173 69.9774 4.66424C70.8669 6.02599 71.3116 7.6562 71.3116 9.55458C71.3116 11.4734 70.9704 13.1965 70.2877 14.7233C69.6258 16.2503 68.6847 17.5606 67.4643 18.6542C66.2645 19.7479 64.8372 20.5835 63.1823 21.1613C61.5275 21.739 59.7072 22.0279 57.7213 22.0279H46.0858ZM54.5564 16.3329H57.9696C59.2727 16.3329 60.3588 16.0544 61.2276 15.4971C62.117 14.9194 62.7893 14.156 63.2444 13.2067C63.6994 12.237 63.9271 11.164 63.9271 9.98783C63.9271 9.1418 63.7512 8.43 63.3995 7.85213C63.0685 7.27442 62.5618 6.83079 61.8791 6.52123C61.2172 6.21184 60.3897 6.05699 59.3969 6.05699H56.6043L54.5564 16.3329ZM72.0306 22.0279L76.3746 0.362H82.3321L88.1343 14.5068H84.9694L96.1396 0.362H102.376L98.0943 22.0279H91.4233L93.6883 10.3902L94.7433 10.3282L87.2345 20.0779H84.0075L79.7877 10.2974L81.0288 10.3902L78.7018 22.0279H72.0306ZM3.80521 25.9818L1.37068 25.0651V26.638H0.950806V24.5789H1.3657L3.79698 25.4855L6.15879 24.5789H6.57524L6.57679 26.638H6.15879L6.16205 25.0685L3.80521 25.9818ZM12.6694 26.0643V25.1625C12.6694 25.047 12.6143 24.9893 12.5041 24.9893H9.6977C9.58737 24.9893 9.53236 25.0431 9.53236 25.1509V26.0594C9.53236 26.1714 9.58752 26.2275 9.6977 26.2275H12.5074C12.6153 26.2275 12.6694 26.1731 12.6694 26.0643ZM9.61006 26.638C9.27954 26.638 9.11435 26.4726 9.11435 26.1418V25.0733C9.11435 24.7436 9.27783 24.5789 9.60508 24.5789H12.5785C12.9145 24.5789 13.0826 24.7475 13.0826 25.085V26.1516C13.0826 26.4726 12.9201 26.633 12.595 26.633L9.61006 26.638ZM18.1768 26.638H17.681V24.991H15.6116V24.5722H20.2394V24.9861H18.1768V26.638ZM26.3286 26.0643V25.1625C26.3286 25.047 26.2736 24.9893 26.1634 24.9893H23.3569C23.2467 24.9893 23.1917 25.0431 23.1917 25.1509V26.0594C23.1917 26.1714 23.2467 26.2275 23.3569 26.2275H26.1667C26.2747 26.2275 26.3286 26.1731 26.3286 26.0643ZM23.2694 26.638C22.9387 26.638 22.7735 26.4726 22.7735 26.1418V25.0733C22.7735 24.7436 22.9371 24.5789 23.2644 24.5789H26.2377C26.5738 24.5789 26.7418 24.7475 26.7418 25.085V26.1516C26.7418 26.4726 26.5792 26.633 26.2543 26.633L23.2694 26.638ZM33.2442 26.638H32.7401L32.241 25.9769H29.6891V26.638H29.2709L29.2759 24.5772H32.7483C33.0756 24.5772 33.2392 24.7393 33.2392 25.0636V25.4855C33.2392 25.813 33.0723 25.9769 32.7384 25.9769L33.2442 26.638ZM32.6492 24.9876H29.6891V25.568H32.6624C32.7715 25.568 32.8266 25.5097 32.8277 25.3933L32.831 25.1543C32.8321 25.0431 32.7715 24.9876 32.6492 24.9876ZM39.7399 26.1319C39.7399 26.4693 39.5713 26.638 39.2342 26.638H35.7716L35.7766 26.2291H39.1615C39.2706 26.2291 39.3262 26.1786 39.3284 26.0775L39.33 25.9769C39.3323 25.8681 39.2754 25.8137 39.1598 25.8137H36.2725C35.9385 25.8137 35.7716 25.6593 35.7716 25.3503V25.0768C35.7716 24.7426 35.9353 24.5755 36.2625 24.5755L39.7399 24.5722V24.9861H36.35C36.2409 24.9861 36.1864 25.041 36.1864 25.1509V25.2333C36.1864 25.3454 36.2398 25.4015 36.3467 25.4015H39.2342C39.5713 25.4015 39.7399 25.5641 39.7399 25.8895V26.1319ZM45.6655 24.9893H42.6938V25.5697L45.6705 25.5647C45.7707 25.5647 45.8213 25.5103 45.8224 25.4015L45.8241 25.1493C45.8252 25.0427 45.7724 24.9893 45.6655 24.9893ZM42.6938 25.9801V26.638H42.2756V24.5772H45.7365C46.0748 24.5772 46.244 24.7404 46.244 25.0668V25.4723C46.244 25.812 46.0765 25.9818 45.7415 25.9818L42.6938 25.9801ZM52.3281 26.0643V25.1625C52.3281 25.047 52.2731 24.9893 52.1629 24.9893H49.3565C49.2463 24.9893 49.1912 25.0431 49.1912 25.1509V26.0594C49.1912 26.1714 49.2463 26.2275 49.3565 26.2275H52.1662C52.2742 26.2275 52.3281 26.1731 52.3281 26.0643ZM49.2689 26.638C48.9384 26.638 48.773 26.4726 48.773 26.1418V25.0733C48.773 24.7436 48.9366 24.5789 49.2639 24.5789H52.2372C52.5733 24.5789 52.7413 24.7475 52.7413 25.085V26.1516C52.7413 26.4726 52.5789 26.633 52.2538 26.633L49.2689 26.638ZM59.2437 26.638H58.7396L58.2405 25.9769H55.6886V26.638H55.2705L55.2754 24.5772H58.7478C59.0751 24.5772 59.2387 24.7393 59.2387 25.0636V25.4855C59.2387 25.813 59.0718 25.9769 58.738 25.9769L59.2437 26.638ZM58.6487 24.9876H55.6886V25.568H58.6619C58.771 25.568 58.8261 25.5097 58.8272 25.3933L58.8305 25.1543C58.8316 25.0431 58.771 24.9876 58.6487 24.9876ZM64.3362 26.638H63.8404V24.991H61.7711V24.5722H66.3989V24.9861H64.3362V26.638ZM76.3014 25.9818L73.8669 25.0651V26.638H73.447V24.5789H73.8619L76.2932 25.4855L78.655 24.5789H79.0715L79.0732 26.638H78.655L78.6583 25.0685L76.3014 25.9818ZM85.5788 26.638H81.6121V24.5739H85.5788V24.9876H82.0318V25.4015H85.5788V25.8154H82.0318V26.2275H85.5788V26.638ZM88.5342 26.2258H91.5109C91.6189 26.2258 91.6729 26.1686 91.6729 26.0544V25.1558C91.6729 25.0437 91.6151 24.9876 91.4993 24.9876H88.5342V26.2258ZM88.1178 24.5739H91.5886C91.9202 24.5739 92.086 24.7387 92.086 25.0685V26.1351C92.086 26.4693 91.9202 26.6363 91.5886 26.6363H88.1178V24.5739ZM94.6977 26.6315V24.5722H95.1193V26.6315H94.6977ZM101.627 26.6347H101.208V25.9719H98.0732V26.6347H97.6615V25.085C97.6615 24.7443 97.8273 24.5739 98.1591 24.5739H101.127C101.46 24.5739 101.627 24.7458 101.627 25.0899V26.6347ZM98.0732 25.5598H101.208V25.1509C101.208 25.042 101.153 24.9876 101.043 24.9876H98.2384C98.1282 24.9876 98.0732 25.0437 98.0732 25.1558V25.5598ZM7.71877 22.2254H2.07709L5.7442 0.55948H11.1037L7.71846 22.2254H7.71877ZM17.8734 22.2254H12.2318L15.8989 0.55948H21.2583L17.8734 22.2254Z" fill="white" fill-opacity="0.6"/>
</svg>
