<svg width="36" height="50" viewBox="0 0 36 50" fill="none" xmlns="http://www.w3.org/2000/svg">
<path d="M13.8223 15.1438C13.4224 15.1597 13.0857 14.7657 13.0857 14.345C13.0857 12.7955 12.4385 12.1991 12.4175 12.1619C12.1071 12.9553 11.5283 13.6954 10.86 14.3557C8.44496 16.7252 5.96142 18.9457 4.32506 22.0234C2.59924 25.2716 1.5364 28.8446 0.87343 32.4547C0.463023 34.6965 0.210465 36.9649 0.0894479 39.2386C0.03157 40.3461 0 41.4856 0 42.6518V43.9776C0.384099 44.574 0.910261 45.1384 1.56796 45.6709C2.1941 46.1821 2.94125 46.656 3.78837 47.098C7.22421 48.8711 12.3175 50 18 50C23.6826 50 28.7758 48.8711 32.2116 47.0927C33.0589 46.656 33.8007 46.1768 34.4321 45.6656C35.0898 45.1331 35.616 44.5686 36 43.9723V42.6518C36 41.4856 35.9684 40.3461 35.9106 39.2386C35.7895 36.9649 35.537 34.6964 35.1266 32.4547C34.4637 28.8445 33.4009 25.2716 31.675 22.0234C30.0386 18.9457 27.5551 16.7252 25.1401 14.3557C24.4718 13.7007 23.893 12.9553 23.5826 12.1619C23.5617 12.1991 22.9144 12.7955 22.9144 14.345C22.9144 14.7657 22.5777 15.1597 22.1778 15.1438C21.7201 15.1225 21.4253 14.7923 21.3886 14.345C21.1044 11.065 24.7139 9.45687 25.2506 6.41108C25.7031 3.81257 24.3666 1.21406 22.0673 0L18.0001 3.99361L13.9328 0C11.6387 1.21406 10.297 3.81257 10.7496 6.41108C11.281 9.45154 14.8957 11.065 14.6115 14.345C14.5748 14.7923 14.2801 15.1225 13.8223 15.1438Z" fill="url(#paint0_linear_15_43)"/>
<defs>
<linearGradient id="paint0_linear_15_43" x1="18" y1="0" x2="18" y2="50" gradientUnits="userSpaceOnUse">
<stop stop-color="#C6AE64"/>
<stop offset="1" stop-color="#9C7238"/>
</linearGradient>
</defs>
</svg>
