<svg width="43" height="48" viewBox="0 0 43 48" fill="none" xmlns="http://www.w3.org/2000/svg">
<path d="M2.31748 28.6232H14.3339C14.4043 28.3738 17.8644 21.4621 17.8321 14.3033C17.7892 4.7527 13.095 -0.0214113 9.27336 7.21822e-05C4.33335 0.0263298 -0.772558 7.78306 0.0975238 19.9463C0.344584 23.429 2.2232 28.3786 2.31748 28.6232ZM15.395 40.1861C15.9989 43.7619 14.1764 47.025 10.6041 47.6302C7.03311 48.2353 3.81894 45.6883 3.21382 42.1113C3.21382 42.1113 2.37239 35.8083 2.37239 33.4212H14.3005L15.395 40.1861ZM40.6261 28.6232H28.6025C28.5321 28.3738 25.0697 21.4621 25.1019 14.3033C25.1449 4.7527 29.8438 -0.0214113 33.6667 7.21822e-05C38.6103 0.0263298 43.7186 7.78306 42.8485 19.9475C42.6002 23.429 40.7204 28.3786 40.6261 28.6232ZM27.5594 40.1861C26.9543 43.7619 28.778 47.025 32.3526 47.6302C35.926 48.2353 39.1414 45.6883 39.7477 42.1113C39.7477 42.1113 40.5856 35.8083 40.5856 33.4212H28.6503L27.5594 40.1861Z" fill="url(#paint0_linear_15_35)"/>
<defs>
<linearGradient id="paint0_linear_15_35" x1="21.473" y1="0" x2="21.473" y2="47.7193" gradientUnits="userSpaceOnUse">
<stop stop-color="#C6AE64"/>
<stop offset="1" stop-color="#9C7238"/>
</linearGradient>
</defs>
</svg>
